<svg height="512" viewBox="0 0 512 512" width="512" xmlns="http://www.w3.org/2000/svg"><g><g><path d="m16 256h240v208h-240z" fill="#a0815c"/><path d="m88 256h80v112h-80z" fill="#ff9811"/><path d="m256 256h240v208h-240z" fill="#a0815c"/><path d="m328 256h80v112h-80z" fill="#ff9811"/><path d="m192 48h240v208h-240z" fill="#a0815c"/><path d="m264 48h80v112h-80z" fill="#ff9811"/><path d="m64 144h128v112h-128z" fill="#5f4d37"/><path d="m104 144h48v48h-48z" fill="#ff9811"/></g><path d="m496 248h-56v-200a8 8 0 0 0 -8-8h-240a8 8 0 0 0 -8 8v88h-120a8 8 0 0 0 -8 8v104h-40a8 8 0 0 0 -8 8v208a8 8 0 0 0 8 8h480a8 8 0 0 0 8-8v-208a8 8 0 0 0 -8-8zm-224-192h64v96h-64zm-160 96h32v32h-32zm-40 0h24v40a8 8 0 0 0 8 8h48a8 8 0 0 0 8-8v-40h24v96h-112zm88 112v96h-64v-96zm88 192h-224v-192h56v104a8 8 0 0 0 8 8h80a8 8 0 0 0 8-8v-104h72zm-48-208v-192h56v104a8 8 0 0 0 8 8h80a8 8 0 0 0 8-8v-104h72v192zm200 16v96h-64v-96zm88 192h-224v-192h56v104a8 8 0 0 0 8 8h80a8 8 0 0 0 8-8v-104h72z"/></g></svg>