<svg xmlns="http://www.w3.org/2000/svg" viewBox="0 0 96 120" x="0px" y="0px"><title>love 8</title><g data-name="Layer 9"><path d="M94.44,66,76.89,17.77a1,1,0,0,0-1.28-.59L56.19,24.24,51.66,11.77a1,1,0,0,0-1.29-.59L2.16,28.73a1,1,0,0,0-.57.51,1,1,0,0,0,0,.77L19.11,78.23a1,1,0,0,0,.94.66.83.83,0,0,0,.34-.07l19.42-7.06,4.53,12.47a1,1,0,0,0,.52.56,1.06,1.06,0,0,0,.42.09,1,1,0,0,0,.35-.06L93.84,67.27a1,1,0,0,0,.57-.51A1,1,0,0,0,94.44,66ZM69.21,60l-11-30.11L73,24.52,87.09,63.35,48.27,77.48l-2.83-7.77,23.17-8.44a1,1,0,0,0,.56-.51A1,1,0,0,0,69.21,60ZM3.78,30.26,50.12,13.4,67,59.74,20.65,76.6ZM45.88,82.6,41.69,71.07l1.87-.68,3.18,8.71a1,1,0,0,0,.93.66A1.07,1.07,0,0,0,48,79.7l40.7-14.82a1,1,0,0,0,.56-.51,1,1,0,0,0,0-.77L74.5,22.9a1,1,0,0,0-.52-.56,1,1,0,0,0-.76,0L57.56,28l-.68-1.88L75.35,19.4,92.22,65.74ZM64.05,58.37a1,1,0,0,1-.57.51L22.78,73.7a1,1,0,0,1-.34.06,1,1,0,0,1-.94-.66L6.68,32.4a1,1,0,0,1,0-.77,1,1,0,0,1,.56-.51l7.05-2.57A1,1,0,0,1,15,30.43l-6.1,2.22L23,71.48,61.86,57.35,47.73,18.52,24.18,27.1a1,1,0,1,1-.69-1.88L48,16.3a1,1,0,0,1,.77,0,1,1,0,0,1,.51.56L64.08,57.6A1,1,0,0,1,64.05,58.37ZM26.7,49.16l11.38,5.3a1,1,0,0,0,.42.1,1,1,0,0,0,.34-.06,1,1,0,0,0,.57-.52l5.3-11.38h0a6.47,6.47,0,0,0-8.08-8.81A6.42,6.42,0,0,0,33,37.14l-.25.54-.55-.25A6.47,6.47,0,1,0,26.7,49.16ZM25.38,41.4a4.49,4.49,0,0,1,2.53-2.31,4.54,4.54,0,0,1,1.54-.27,4.44,4.44,0,0,1,1.88.42l1.45.68a1,1,0,0,0,.76,0,1,1,0,0,0,.57-.52L34.79,38a4.48,4.48,0,0,1,5.94-2.16,4.48,4.48,0,0,1,2.16,5.94L38,52.23,27.55,47.34a4.42,4.42,0,0,1-2.32-2.52A4.5,4.5,0,0,1,25.38,41.4ZM18.25,27.82a1,1,0,1,1,1,1A1,1,0,0,1,18.25,27.82ZM48.05,57a1,1,0,0,1,.61-1.27L55,53.43a1,1,0,1,1,.67,1.88l-6.32,2.25a1,1,0,0,1-.33.06A1,1,0,0,1,48.05,57Z"/></g><text x="0" y="111" fill="#000000" font-size="5px" font-weight="bold" font-family="'Helvetica Neue', Helvetica, Arial-Unicode, Arial, Sans-serif">Created by agus raharjo</text><text x="0" y="116" fill="#000000" font-size="5px" font-weight="bold" font-family="'Helvetica Neue', Helvetica, Arial-Unicode, Arial, Sans-serif">from the Noun Project</text></svg>