<svg xmlns="http://www.w3.org/2000/svg" xmlns:xlink="http://www.w3.org/1999/xlink" version="1.1" x="0px" y="0px" viewBox="0 0 100 125" style="enable-background:new 0 0 100 100;" xml:space="preserve"><path d="M84.6,86.5H15.2c-0.8,0-1.5-0.7-1.5-1.5V44.8c0-0.8,0.7-1.5,1.5-1.5s1.5,0.7,1.5,1.5v38.7h66.4V45c0-0.8,0.7-1.5,1.5-1.5  s1.5,0.7,1.5,1.5v40C86.1,85.8,85.4,86.5,84.6,86.5z"/><path d="M58.5,86.5H41.2c-0.8,0-1.5-0.7-1.5-1.5V59.4c0-0.8,0.7-1.5,1.5-1.5h17.3c0.8,0,1.5,0.7,1.5,1.5V85  C60,85.8,59.4,86.5,58.5,86.5z M42.7,83.5H57V60.9H42.7V83.5z"/><path d="M82.8,46.4c-2.7,0-5.2-1.4-6.7-3.4c-1.5,2.1-3.9,3.4-6.6,3.4c-2.7,0-5.2-1.4-6.7-3.4c-1.5,2.1-3.9,3.4-6.6,3.4  c-2.7,0-5.2-1.4-6.6-3.4c-1.5,2.1-3.9,3.4-6.6,3.4c-2.7,0-5.2-1.4-6.6-3.4c-1.5,2.1-3.9,3.4-6.6,3.4c-2.7,0-5.2-1.4-6.7-3.5  c-1.5,2.1-4,3.5-6.7,3.5c-4.5,0-8.2-3.7-8.2-8.1v-8.8C8,28.7,8.7,28,9.5,28h80c0.8,0,1.5,0.7,1.5,1.5v8.8  C91,42.8,87.3,46.4,82.8,46.4z M77.7,38.3c0,2.8,2.3,5.1,5.2,5.1c2.9,0,5.2-2.3,5.2-5.1V31H11v7.3c0,2.8,2.4,5.1,5.2,5.1  s5.2-2.3,5.2-5.1c0-0.8,0.7-1.5,1.5-1.5s1.5,0.7,1.5,1.5c0,2.8,2.3,5.1,5.1,5.1c2.8,0,5.1-2.3,5.1-5.1c0-0.8,0.7-1.5,1.5-1.5  s1.5,0.7,1.5,1.5c0,2.8,2.3,5.1,5.1,5.1c2.8,0,5.2-2.3,5.2-5.1c0-0.8,0.7-1.5,1.5-1.5s1.5,0.7,1.5,1.5c0,2.8,2.3,5.1,5.1,5.1  s5.1-2.3,5.1-5.1c0-0.8,0.7-1.5,1.5-1.5s1.5,0.7,1.5,1.5c0,2.8,2.3,5.1,5.2,5.1c2.8,0,5.1-2.3,5.1-5.1c0-0.8,0.7-1.5,1.5-1.5  S77.7,37.5,77.7,38.3z"/><path d="M89.5,31h-80c-0.5,0-0.9-0.2-1.2-0.6C8,30,7.9,29.4,8.1,29l5-13.6c0.2-0.6,0.8-1,1.4-1h70c0.6,0,1.2,0.4,1.4,1l5,13.6  c0.2,0.5,0.1,1-0.2,1.4S90,31,89.5,31z M11.7,28h75.7l-3.9-10.6H15.5L11.7,28z"/><text x="0" y="115" fill="#000000" font-size="5px" font-weight="bold" font-family="'Helvetica Neue', Helvetica, Arial-Unicode, Arial, Sans-serif">Created by Paola Moreira</text><text x="0" y="120" fill="#000000" font-size="5px" font-weight="bold" font-family="'Helvetica Neue', Helvetica, Arial-Unicode, Arial, Sans-serif">from the Noun Project</text></svg>