<?xml version="1.0" standalone="no"?>
<!DOCTYPE svg PUBLIC "-//W3C//DTD SVG 20010904//EN"
 "http://www.w3.org/TR/2001/REC-SVG-20010904/DTD/svg10.dtd">
<svg version="1.0" xmlns="http://www.w3.org/2000/svg"
 width="1080.000000pt" height="1080.000000pt" viewBox="0 0 1080.000000 1080.000000"
 preserveAspectRatio="xMidYMid meet">
<metadata>
Created by potrace 1.16, written by Peter Selinger 2001-2019
</metadata>
<g transform="translate(0.000000,1080.000000) scale(0.100000,-0.100000)"
fill="#000000" stroke="none">
<path d="M9385 10790 c-3 -5 -3 -15 0 -21 4 -6 0 -9 -10 -7 -17 3 -28 -10 -39
-45 -4 -13 -14 -18 -33 -16 -16 1 -35 -1 -43 -4 -8 -4 -31 -8 -50 -9 -41 -4
-39 23 -22 -268 15 -244 21 -337 27 -375 2 -16 7 -70 10 -120 3 -49 10 -124
15 -165 6 -41 14 -122 20 -180 12 -133 26 -173 57 -165 29 7 73 -21 73 -46 0
-26 40 -26 47 0 2 10 16 24 30 30 13 6 23 17 20 24 -2 6 9 25 25 42 30 32 35
45 17 45 -6 0 -1 9 12 20 19 15 21 19 7 20 -9 0 -23 -7 -32 -15 -8 -8 -22 -15
-30 -15 -9 0 -16 -6 -16 -13 0 -8 -10 -22 -22 -33 -21 -19 -21 -19 -16 1 3 11
9 29 13 40 8 20 8 20 -8 0 -9 -11 -19 -16 -24 -11 -4 5 -2 11 5 13 6 3 12 10
12 17 0 7 10 24 23 38 16 18 62 94 62 104 0 1 10 5 22 8 18 6 25 2 32 -17 14
-35 53 -39 95 -11 19 13 39 24 43 24 11 0 60 80 68 111 6 26 57 89 72 89 4 1
18 9 31 19 22 19 31 71 12 71 -5 0 -10 5 -10 11 0 5 5 7 10 4 6 -3 10 -1 10 4
0 6 -7 11 -15 11 -8 0 -15 8 -15 18 -1 15 -2 15 -16 -3 -14 -19 -16 -19 -25
-2 -6 9 -18 17 -27 17 -9 0 -24 10 -31 23 -15 23 -16 28 -30 116 -5 33 -15 59
-26 67 -17 12 -17 14 -1 20 16 6 16 8 1 24 -15 17 -15 19 0 27 9 5 17 17 19
27 1 10 8 21 15 26 8 4 10 13 6 20 -6 10 -4 11 6 4 23 -14 70 -13 76 2 3 8 11
14 19 14 8 0 14 5 14 11 0 8 4 8 13 1 32 -27 38 1 34 179 -2 96 -7 182 -12
192 -6 16 -29 17 -260 17 -159 0 -256 -4 -260 -10z m15 -601 c0 -10 4 -19 10
-19 5 0 12 -16 16 -35 3 -19 10 -38 15 -41 5 -3 7 -8 5 -12 -2 -4 7 -8 20 -8
14 -1 21 2 17 9 -3 6 -1 7 5 3 7 -4 12 -17 12 -29 1 -34 22 -54 58 -54 17 0
34 -2 36 -4 8 -10 15 -69 7 -64 -5 3 -11 -1 -14 -7 -3 -10 -8 -9 -22 2 -17 13
-18 13 -13 -1 4 -9 3 -20 -2 -25 -12 -12 0 -64 14 -64 6 0 4 -5 -4 -10 -12 -8
-13 -12 -2 -19 11 -7 11 -9 -1 -14 -8 -3 -17 -18 -21 -33 -4 -15 -18 -41 -32
-59 -13 -17 -24 -36 -24 -41 -1 -15 -50 -46 -66 -40 -12 5 -19 55 -17 124 1 6
-3 12 -8 12 -5 0 -4 8 2 19 7 10 9 27 5 37 -7 18 -22 356 -17 397 2 17 21 -5
21 -24z"/>
<path d="M10204 10783 c2 -10 8 -29 12 -43 4 -14 7 -55 6 -92 -1 -57 2 -73 22
-103 23 -33 25 -34 28 -13 2 18 9 22 28 20 23 -2 26 2 28 34 2 30 1 34 -12 22
-8 -7 -10 -14 -5 -16 17 -7 9 -20 -9 -15 -14 3 -17 12 -14 34 2 16 8 29 13 29
5 0 9 9 9 21 0 12 5 19 13 16 6 -2 11 -12 11 -21 -1 -9 4 -16 12 -16 9 0 14
-11 14 -30 0 -30 13 -40 26 -19 3 6 20 9 37 6 29 -4 57 10 57 30 0 4 9 14 20
21 11 7 20 21 20 31 0 11 5 23 10 26 6 4 8 10 5 15 -3 4 2 11 11 14 9 4 14 13
10 21 -3 8 -1 15 4 15 6 0 10 7 10 15 0 22 -192 22 -210 0 -6 -8 -9 -19 -5
-24 3 -6 -3 -21 -14 -33 -12 -12 -21 -19 -21 -15 0 4 -9 -2 -20 -13 -11 -11
-24 -20 -28 -20 -15 0 -36 50 -36 86 0 27 -4 34 -19 34 -13 0 -17 -5 -13 -17z"/>
<path d="M10780 10493 c-8 -10 -21 -31 -28 -46 -6 -15 -17 -25 -22 -22 -6 3
-10 -1 -10 -10 0 -8 -9 -23 -20 -32 -11 -10 -20 -22 -20 -28 0 -5 -16 -23 -35
-40 -19 -16 -35 -34 -35 -40 0 -6 -7 -21 -16 -34 -13 -18 -18 -20 -25 -10 -7
11 -9 11 -9 -2 0 -9 -11 -28 -26 -42 -17 -18 -21 -27 -12 -30 7 -2 2 -2 -11 0
-19 3 -22 1 -17 -13 4 -11 2 -15 -8 -11 -11 5 -17 -5 -22 -39 -6 -41 -24 -63
-24 -28 0 8 -5 12 -11 8 -6 -3 -8 -17 -4 -31 5 -20 3 -24 -9 -20 -14 6 -21 -8
-17 -35 0 -4 -8 -9 -18 -13 -22 -7 -46 -54 -33 -67 11 -11 72 49 72 70 0 6 9
12 21 12 11 0 18 4 14 9 -6 11 86 107 99 103 4 -2 6 4 3 12 -3 8 13 34 39 62
24 27 44 52 44 56 0 5 7 8 15 8 8 0 15 4 15 10 0 15 33 50 47 50 7 0 14 5 14
10 1 6 2 14 3 19 0 5 13 19 29 31 15 12 25 25 22 30 -3 5 0 10 6 12 6 2 9 25
7 56 -3 48 -4 51 -18 35z"/>
<path d="M10339 10424 c-7 -8 -25 -22 -41 -30 -15 -8 -28 -20 -28 -27 0 -6
-18 -32 -40 -56 -22 -24 -40 -50 -40 -57 0 -8 -7 -14 -15 -14 -8 0 -15 -6 -15
-12 0 -7 -14 -27 -30 -45 -17 -18 -30 -37 -30 -42 0 -6 -9 -16 -20 -23 -11 -7
-20 -17 -20 -21 0 -5 -7 -15 -15 -23 -15 -15 -21 -54 -9 -54 21 0 68 52 90
100 4 8 24 31 44 50 20 19 47 51 60 70 13 19 32 41 42 48 10 7 18 20 18 28 0
9 6 14 12 12 12 -4 38 33 38 54 0 5 7 16 15 24 8 9 15 20 15 25 0 14 -16 11
-31 -7z"/>
<path d="M4874 9660 c-12 -5 -25 -13 -29 -19 -3 -6 -17 -11 -29 -11 -20 0 -24
-6 -29 -42 -13 -91 -19 -123 -26 -128 -4 -3 -11 -14 -16 -25 -7 -18 -8 -19
-12 -2 -3 10 0 23 5 30 28 37 17 45 -14 10 -19 -24 -44 -43 -55 -43 -10 0 -19
-7 -19 -15 0 -15 11 -17 95 -20 45 -2 91 -12 117 -25 9 -6 31 -7 48 -4 18 4
36 1 45 -6 21 -17 19 -3 -2 18 -33 33 -74 53 -93 47 -14 -5 -20 -2 -20 10 0
18 18 27 61 29 16 1 35 8 40 16 8 11 12 12 16 3 2 -7 13 -13 24 -13 12 0 19
-7 19 -20 0 -11 9 -25 20 -32 11 -7 20 -18 20 -24 0 -21 53 -34 132 -33 l80 1
-5 34 c-3 18 -1 34 5 36 10 4 -26 83 -43 94 -5 3 -22 -9 -38 -27 -28 -30 -30
-31 -67 -19 -22 7 -44 16 -50 21 -6 5 -14 6 -17 2 -4 -3 -7 -2 -7 4 0 6 -16
14 -36 18 -32 6 -35 9 -30 31 5 17 3 23 -4 19 -5 -3 -10 -3 -11 2 -2 25 -9 43
-24 67 -19 28 -20 29 -51 16z"/>
<path d="M10770 9482 c0 -10 -5 -23 -12 -30 -9 -9 -8 -12 5 -12 20 0 21 -4 7
-31 -8 -14 -8 -19 1 -17 7 2 15 -5 17 -14 2 -11 -2 -18 -12 -18 -9 0 -16 -4
-16 -9 0 -5 -7 -11 -14 -14 -10 -4 -13 -1 -10 8 5 11 -22 35 -39 35 -3 0 -8
-16 -11 -35 -4 -20 -11 -33 -17 -30 -5 4 -7 11 -4 16 4 5 -5 9 -18 9 -29 0
-53 -40 -48 -82 1 -18 -3 -34 -11 -40 -10 -7 -10 -11 5 -22 10 -8 17 -27 17
-47 1 -19 5 -53 9 -77 5 -23 5 -45 0 -47 -4 -3 -5 -21 -2 -39 3 -19 0 -42 -6
-52 -10 -18 -11 -18 -17 4 -3 12 -8 22 -10 22 -8 0 -44 -40 -42 -48 1 -4 -4
-18 -12 -32 -20 -34 -17 -308 3 -405 8 -38 18 -104 21 -145 4 -41 8 -88 10
-105 2 -16 7 -82 11 -145 4 -63 13 -126 20 -140 8 -14 20 -43 29 -65 8 -22 15
-33 16 -25 0 13 1 13 10 0 8 -13 12 -12 25 8 13 17 20 20 35 12 15 -8 18 -19
15 -52 -3 -26 1 -45 8 -50 8 -5 12 -50 14 -138 1 -73 4 -134 6 -137 3 -2 15 0
26 7 l21 11 0 813 c0 711 -2 815 -15 826 -20 16 -19 74 1 106 14 20 14 23 2
19 -10 -4 -17 2 -21 16 -8 29 1 43 18 29 10 -9 13 6 14 79 1 71 -2 90 -14 95
-10 3 -15 -1 -15 -12z"/>
<path d="M5273 9323 c-32 -3 -41 -8 -36 -19 3 -7 1 -14 -5 -14 -5 0 -13 7 -16
16 -5 13 -13 15 -39 9 -17 -4 -40 -8 -49 -9 -10 -1 -20 -5 -24 -9 -3 -3 -17 1
-31 10 -19 13 -31 14 -59 5 -18 -5 -42 -8 -53 -5 -11 3 -31 -7 -52 -25 -41
-35 -84 -45 -101 -24 -8 10 -9 13 -2 9 10 -6 24 12 24 29 0 14 -40 0 -45 -16
-7 -21 -58 -29 -70 -10 -10 17 -105 -9 -105 -29 0 -22 48 -59 82 -63 20 -2 35
-1 32 3 -3 6 53 19 84 19 6 0 12 -9 12 -20 0 -21 10 -25 99 -35 54 -6 109 -28
124 -49 4 -6 5 -37 1 -69 -5 -48 -3 -60 11 -70 15 -12 14 -13 -4 -14 -12 -1
-21 2 -21 8 0 5 -7 9 -15 9 -8 0 -15 -5 -15 -11 0 -5 -4 -7 -10 -4 -5 3 -10
-1 -10 -10 0 -9 4 -14 8 -11 5 3 17 -5 27 -16 14 -17 16 -28 9 -56 -10 -41
-33 -55 -29 -19 4 30 -9 52 -24 43 -8 -5 -8 -13 -1 -26 13 -25 13 -30 -5 -30
-8 0 -15 -9 -15 -20 0 -11 5 -20 10 -20 6 0 10 -7 10 -16 0 -9 -5 -12 -11 -8
-7 4 -10 1 -7 -7 2 -7 18 -20 35 -28 17 -9 31 -23 32 -31 0 -8 8 -45 18 -82
15 -55 23 -70 43 -77 l25 -9 -27 -10 c-31 -13 -46 -32 -24 -32 9 0 16 -4 16
-9 0 -6 17 -11 38 -13 30 -2 38 -7 40 -25 2 -15 13 -25 28 -29 26 -7 31 -23
12 -43 -11 -10 -10 -15 5 -25 9 -7 17 -19 17 -26 0 -8 12 -11 36 -8 30 4 38 0
52 -24 11 -19 22 -26 34 -22 10 3 18 1 18 -5 0 -20 44 -56 66 -53 15 2 27 -7
42 -31 14 -24 30 -37 51 -41 17 -3 45 -9 61 -12 31 -6 42 -24 15 -24 -8 0 -15
-4 -15 -10 0 -5 -13 -7 -30 -4 -30 7 -65 -10 -55 -27 3 -4 26 -11 51 -15 39
-6 45 -9 41 -26 -4 -15 -2 -18 11 -13 11 4 8 -3 -8 -20 -24 -26 -25 -26 -28
-6 -5 34 -56 55 -97 41 -19 -6 -39 -9 -45 -5 -14 9 -13 32 3 38 9 3 9 7 -1 19
-10 13 -9 16 8 21 13 3 23 0 27 -9 10 -27 22 -14 19 23 -1 29 -7 39 -21 42
-11 2 -36 19 -55 38 -26 25 -36 30 -38 18 -2 -8 -8 -15 -13 -15 -13 0 -11 14
3 28 17 17 -8 33 -39 25 -16 -3 -23 -1 -23 10 0 8 -7 18 -16 21 -31 12 -44 6
-44 -19 0 -14 -7 -28 -15 -31 -8 -4 -15 -13 -15 -21 0 -8 -4 -12 -10 -8 -5 3
-18 0 -29 -6 -16 -10 -24 -9 -47 6 -19 12 -29 14 -32 7 -6 -18 -19 -14 -25 7
-2 11 0 24 6 30 8 8 5 15 -9 26 -25 19 -54 19 -54 0 0 -8 -3 -14 -7 -14 -21 3
-33 -2 -33 -16 0 -8 -4 -15 -10 -15 -9 0 -14 23 -13 58 1 19 -25 14 -30 -5 -4
-14 -5 -14 -6 3 -1 25 24 51 34 34 3 -5 18 -10 33 -10 23 0 24 2 12 14 -17 15
-156 30 -164 17 -3 -4 -19 -6 -37 -3 -35 5 -55 -14 -37 -35 6 -7 8 -14 4 -14
-3 -1 -10 -3 -16 -4 -5 -1 -16 -3 -22 -4 -7 -1 -21 -19 -30 -41 -18 -45 -48
-47 -48 -3 0 15 -4 22 -11 17 -6 -3 -9 -14 -6 -23 6 -25 -49 -48 -74 -32 -22
13 -49 15 -49 2 0 -5 7 -12 16 -15 24 -9 12 -27 -28 -41 -31 -10 -35 -10 -31
3 4 10 1 13 -8 10 -8 -2 -15 -14 -17 -25 -4 -25 -32 -34 -72 -23 -35 10 -43 4
-27 -21 9 -14 9 -21 -1 -31 -16 -16 -62 8 -62 33 0 12 -5 16 -15 13 -8 -4 -13
-10 -10 -14 8 -13 -21 -30 -46 -28 -18 2 -25 -2 -27 -21 -2 -13 0 -21 6 -17
11 7 26 -40 17 -54 -4 -6 1 -10 9 -10 24 0 0 -43 -36 -64 -46 -27 -98 -76 -98
-92 0 -16 -26 -19 -35 -4 -7 11 -55 -29 -55 -46 0 -17 -27 -7 -34 12 -4 10 7
19 34 30 30 12 39 21 37 37 -1 12 4 22 11 23 6 1 17 2 23 3 6 0 9 13 7 29 -2
22 -7 27 -28 24 -26 -3 -93 -69 -84 -83 3 -5 -8 -14 -24 -20 -24 -8 -28 -14
-24 -34 3 -16 11 -25 23 -25 10 0 22 -7 26 -15 7 -13 15 -13 58 1 48 15 52 14
93 -8 23 -12 42 -26 42 -30 0 -5 7 -8 15 -8 8 0 15 4 15 9 0 18 43 19 75 1 31
-18 112 -31 205 -33 34 -1 50 -7 63 -24 10 -13 27 -23 38 -23 23 0 65 -28 137
-92 48 -43 59 -48 101 -48 32 0 64 8 95 25 54 29 76 32 76 9 0 -8 5 -12 10 -9
6 4 17 1 25 -5 9 -8 15 -8 15 -2 0 6 -6 12 -12 15 -8 2 1 13 20 24 19 12 40
30 48 42 15 21 102 71 124 71 6 0 23 11 37 25 15 13 41 27 58 31 16 4 46 20
65 35 19 16 43 29 53 29 10 0 21 9 24 20 3 11 10 20 17 20 6 1 38 3 70 5 36 3
64 0 73 -6 9 -9 17 -8 27 0 7 6 20 9 29 5 8 -3 30 2 47 11 27 14 37 15 61 5
17 -8 29 -20 29 -31 0 -25 31 -32 164 -34 190 -4 286 -21 286 -51 0 -7 14 -21
31 -30 25 -12 36 -14 53 -5 22 12 23 23 18 129 -2 39 -22 34 -23 -6 l-1 -27
-8 25 c-4 14 -9 21 -9 15 -3 -28 -18 -37 -41 -25 -12 6 -34 14 -48 16 -58 9
-69 14 -80 39 -6 14 -17 24 -23 23 -6 -2 -14 3 -17 11 -3 8 0 11 7 7 6 -4 28
5 48 19 21 14 44 25 51 25 7 0 24 7 38 16 21 14 29 15 49 4 25 -14 33 -30 15
-30 -5 0 -10 5 -10 10 0 15 -40 12 -56 -5 -9 -8 -12 -19 -9 -25 3 -5 1 -10 -4
-10 -6 0 -11 -9 -11 -20 0 -14 7 -20 21 -20 11 0 17 5 14 10 -4 6 -12 7 -18 3
-7 -4 2 9 18 28 25 29 31 32 33 16 2 -12 11 -18 25 -17 37 3 48 0 42 -10 -3
-5 -18 -10 -32 -10 -31 0 -27 -8 6 -13 12 -2 31 -11 42 -20 10 -9 32 -17 47
-17 37 0 55 -14 56 -43 1 -14 17 -43 39 -66 20 -22 37 -47 37 -56 0 -8 4 -15
9 -15 5 0 14 -13 21 -30 17 -40 26 -38 35 7 4 21 14 51 22 67 9 18 13 42 10
63 -5 27 -2 36 18 49 45 29 40 84 -6 84 -22 0 -25 23 -5 39 8 7 14 20 14 29
-1 30 21 72 35 66 21 -8 49 31 45 62 -2 15 -9 29 -16 32 -8 2 -10 -2 -5 -15 4
-13 0 -11 -15 7 -16 18 -20 20 -16 6 6 -16 4 -17 -14 -7 -14 7 -23 8 -27 1 -3
-5 -15 -10 -27 -10 -17 0 -19 4 -14 25 6 22 3 25 -20 25 -22 0 -25 -2 -14 -15
19 -23 -13 -20 -34 4 -19 21 -16 61 11 136 20 56 31 219 21 306 -9 83 -36 158
-50 137 -5 -9 -8 -6 -8 10 0 24 -21 52 -39 52 -5 0 -17 10 -25 22 -12 16 -19
19 -27 11 -13 -13 -3 -36 12 -28 5 4 9 2 9 -4 0 -5 -10 -13 -21 -16 -26 -9
-41 11 -34 41 5 21 -20 42 -33 29 -3 -3 0 -5 6 -5 7 0 12 -7 12 -16 0 -10 -6
-14 -15 -11 -8 4 -17 1 -21 -5 -4 -5 -9 -6 -13 -2 -15 21 -48 32 -65 22 -16
-9 -16 -11 -1 -28 9 -10 12 -21 7 -24 -13 -8 -72 13 -72 26 0 6 -6 6 -15 -2
-19 -16 -36 -4 -31 23 2 13 10 21 20 21 23 -2 20 9 -9 36 -24 23 -25 23 -25 3
0 -12 -6 -23 -14 -26 -15 -6 -66 41 -66 61 0 7 -9 12 -21 12 -27 0 -59 -18
-59 -33 0 -18 40 -41 52 -29 11 11 48 4 48 -8 0 -5 -6 -10 -12 -13 -9 -3 -6
-10 10 -22 12 -9 22 -22 22 -30 0 -7 -10 -13 -22 -14 -82 -2 -120 -10 -112
-23 4 -7 2 -8 -4 -4 -6 4 -9 13 -5 21 3 10 -1 15 -12 15 -9 0 -15 -6 -13 -12
6 -18 -34 -37 -49 -25 -9 6 -13 6 -13 -2 0 -6 -9 -11 -20 -11 -11 0 -20 5 -20
12 0 8 -3 9 -11 1 -9 -9 -53 -5 -126 12 -27 6 -63 43 -63 63 0 12 4 12 19 -2
18 -17 20 -17 30 2 6 11 6 23 1 28 -5 5 -7 19 -4 31 5 19 8 20 20 8 12 -11 18
-11 44 1 16 9 30 20 30 25 0 14 -26 11 -40 -6 -31 -38 -42 7 -13 55 11 19 28
31 50 35 27 5 33 11 33 30 0 17 -6 25 -17 26 -14 0 -13 2 5 9 29 12 28 30 -1
30 -27 0 -57 -28 -57 -54 0 -17 -22 -46 -35 -46 -4 0 -5 11 -1 24 3 12 3 26 0
29 -9 9 -64 -44 -64 -62 0 -9 -7 -25 -16 -36 -12 -16 -16 -17 -23 -6 -7 11
-13 8 -26 -13 -19 -29 -63 -56 -92 -56 -10 0 -30 -6 -45 -14 -23 -12 -27 -12
-32 0 -6 16 -36 19 -36 4 0 -5 -6 -10 -13 -10 -16 0 -77 -61 -77 -77 0 -6 6
-16 14 -22 10 -9 15 -8 20 4 5 14 46 22 46 9 0 -12 -54 -63 -62 -58 -4 3 -8
14 -8 25 0 13 -7 19 -24 19 -37 0 -56 -10 -56 -30 0 -10 -8 -21 -17 -24 -19
-8 -37 14 -23 28 6 6 10 18 10 27 0 24 20 35 31 18 6 -11 9 -10 15 4 3 9 10
14 15 11 5 -3 9 -1 9 4 0 14 -28 23 -35 12 -4 -6 -14 -10 -24 -10 -12 0 -20
-10 -24 -29 -6 -31 -42 -48 -63 -30 -26 21 9 145 63 222 18 26 33 51 33 56 0
5 7 11 15 15 8 3 15 12 15 20 0 8 4 16 8 18 14 6 57 73 54 84 -1 7 5 11 15 10
11 0 18 7 19 20 1 12 10 39 22 60 50 97 57 126 29 122 -7 -1 -31 -3 -54 -5z
m657 -644 c0 -5 6 -9 14 -9 17 0 66 -39 49 -40 -6 0 -19 -3 -29 -7 -13 -5 -16
-3 -11 10 3 9 2 17 -3 17 -6 0 -10 -4 -10 -10 0 -5 -5 -10 -11 -10 -6 0 -8 9
-4 21 4 12 3 19 -2 16 -5 -3 -28 -7 -51 -8 -23 -2 -42 -7 -42 -11 0 -4 5 -8
10 -8 6 0 10 -13 10 -28 0 -15 5 -33 12 -40 9 -9 8 -12 -4 -12 -9 0 -19 11
-22 25 -4 14 -11 23 -16 20 -6 -4 -8 -11 -5 -16 4 -5 -1 -9 -9 -9 -10 0 -13 6
-9 18 6 15 5 15 -10 3 -9 -7 -14 -18 -11 -23 8 -13 -106 1 -123 14 -35 28 12
46 57 23 18 -9 38 -14 46 -11 16 6 19 36 4 36 -5 0 -10 5 -10 10 0 6 7 10 15
10 8 0 15 4 15 9 0 13 25 18 93 18 31 0 57 -4 57 -8z m-896 -725 c5 -17 1 -23
-16 -27 -12 -4 -19 -9 -16 -12 3 -4 17 -1 29 6 17 9 24 9 27 0 6 -19 25 -12
19 8 -5 19 10 31 36 31 7 0 6 -4 -3 -10 -8 -5 -12 -12 -9 -15 7 -6 61 12 69
24 3 4 24 10 47 13 33 5 47 2 65 -14 19 -16 20 -21 8 -28 -9 -5 -19 -5 -24 0
-12 12 -36 1 -36 -17 0 -11 -8 -12 -37 -7 -28 5 -39 3 -49 -11 -10 -13 -21
-16 -43 -12 -23 5 -35 1 -54 -19 -17 -17 -26 -21 -29 -12 -4 11 -8 11 -20 0
-13 -10 -17 -10 -22 3 -3 9 -10 13 -16 10 -6 -4 -8 -11 -5 -16 4 -5 -1 -9 -10
-9 -9 0 -14 4 -10 9 3 5 1 12 -5 16 -6 3 -13 -1 -16 -9 -3 -9 -14 -16 -23 -17
-10 0 -11 -2 -3 -6 14 -6 16 -29 3 -37 -12 -8 -80 36 -81 51 0 7 -6 10 -14 7
-8 -3 -19 3 -26 15 -8 17 -8 21 3 21 8 0 20 14 27 31 11 26 17 30 39 26 14 -3
35 0 46 6 11 6 34 12 50 13 38 2 62 8 72 17 9 9 19 -2 27 -29z"/>
<path d="M10494 9136 c-4 -9 -16 -13 -35 -11 -44 6 -89 -18 -149 -77 -30 -30
-63 -57 -72 -61 -10 -3 -18 -11 -18 -18 0 -6 -12 -20 -26 -31 -27 -22 -39 -46
-53 -109 -8 -34 -5 -43 18 -73 14 -20 31 -36 36 -36 6 0 28 -14 49 -30 22 -17
48 -30 57 -30 10 0 22 -7 26 -15 12 -20 52 -8 58 19 2 11 9 47 15 78 6 32 18
65 26 73 9 8 11 15 5 15 -6 0 -11 9 -11 21 0 15 4 19 16 15 10 -4 14 -1 12 6
-3 7 6 27 18 46 13 19 20 41 17 50 -5 14 -3 15 8 5 7 -7 17 -13 21 -13 13 0 9
45 -4 59 -10 11 -10 14 0 18 7 3 12 23 12 53 0 48 -15 75 -26 46z"/>
<path d="M4700 8553 c1 -5 19 -21 40 -38 72 -54 98 -80 104 -101 5 -17 20 -24
69 -34 34 -6 68 -14 75 -16 7 -2 10 1 7 6 -3 6 -13 10 -20 10 -8 0 -12 6 -9
13 6 15 -23 50 -49 60 -10 4 -15 11 -12 17 3 5 3 10 -2 11 -46 5 -72 14 -94
35 -14 13 -28 21 -32 18 -3 -4 -18 1 -31 10 -27 17 -46 21 -46 9z"/>
<path d="M4264 8526 c-3 -8 -11 -13 -18 -10 -19 7 -81 -67 -82 -98 -1 -16 2
-28 7 -28 5 0 9 -5 9 -11 0 -5 -4 -7 -10 -4 -5 3 -10 1 -10 -4 0 -6 4 -11 9
-11 10 0 7 -71 -3 -89 -4 -6 -1 -11 7 -11 16 0 53 49 49 64 -2 5 4 4 12 -4 9
-7 39 -14 67 -16 35 -2 56 -9 65 -21 12 -17 14 -17 41 -1 16 9 39 15 50 12 11
-3 35 2 52 11 18 9 40 13 50 10 10 -3 31 1 46 9 19 10 33 12 41 5 15 -12 59 4
67 24 8 21 -1 27 -34 20 -16 -3 -29 -2 -29 3 0 5 -20 8 -45 6 -36 -3 -45 -1
-45 12 0 13 -4 15 -19 6 -13 -7 -22 -7 -26 0 -3 5 1 10 9 10 9 0 16 7 16 16 0
11 -6 14 -20 9 -11 -4 -20 -2 -20 4 0 6 -7 11 -17 11 -15 0 -15 -1 1 -19 12
-14 14 -24 7 -42 -5 -13 -10 -17 -10 -9 -1 24 -51 19 -52 -5 -1 -16 -2 -15 -8
5 -4 14 -4 27 1 28 21 9 5 23 -19 18 -22 -5 -31 -2 -41 14 -12 20 -12 20 9 10
17 -10 23 -9 30 1 4 8 4 16 -2 20 -6 3 -12 14 -13 25 -2 13 -17 22 -52 31 -62
16 -63 16 -70 -1z"/>
<path d="M9850 8399 c5 -91 -1 -189 -11 -189 -7 0 -9 11 -6 28 5 24 -11 62
-26 62 -3 0 -5 -21 -5 -47 1 -76 -4 -123 -14 -117 -5 3 -15 0 -23 -6 -12 -10
-15 -9 -15 3 0 8 5 17 12 19 6 2 -7 12 -30 21 -45 18 -62 41 -43 60 6 6 11 34
11 62 0 28 5 56 12 63 9 9 7 12 -10 12 -12 0 -22 -5 -22 -12 0 -9 -3 -9 -12 0
-9 9 -14 7 -23 -5 -11 -15 -13 -15 -19 5 -8 25 -26 30 -26 7 0 -8 -18 -26 -40
-40 -22 -14 -40 -30 -40 -35 0 -6 -12 -10 -26 -10 -22 0 -25 -2 -14 -15 10
-12 9 -19 -2 -37 -8 -13 -18 -38 -21 -55 -7 -35 11 -53 52 -53 12 0 31 -11 43
-25 24 -28 75 -34 84 -10 10 25 23 17 39 -22 9 -20 27 -52 41 -71 22 -28 25
-41 21 -80 -5 -52 -10 -72 -19 -87 -9 -15 -3 -145 11 -259 7 -55 10 -108 8
-118 -3 -10 -1 -18 5 -18 5 0 6 -6 2 -12 -17 -26 -10 -49 17 -64 16 -8 30 -10
33 -5 4 5 0 12 -6 14 -9 4 -9 6 -1 6 6 1 21 -11 32 -25 12 -15 21 -23 21 -19
0 15 32 -19 49 -53 l18 -35 7 33 c5 27 9 31 19 21 9 -9 9 -14 -2 -21 -12 -7
-12 -12 -3 -23 7 -7 8 -17 4 -22 -4 -4 0 -6 8 -3 20 6 29 58 20 110 -9 45 1
68 26 68 8 0 14 4 14 10 0 5 13 23 29 39 29 29 29 29 47 10 9 -10 21 -19 25
-19 9 0 20 66 22 126 2 54 -24 426 -30 444 -3 8 -6 43 -6 77 0 34 -3 61 -6 59
-3 -2 -6 38 -6 90 1 52 -3 94 -7 94 -4 0 -8 8 -8 18 -1 18 -22 52 -34 52 -3 0
-6 -6 -6 -14 0 -12 -13 -14 -62 -12 -49 3 -65 0 -75 -13 -11 -14 -12 -11 -13
21 0 20 -5 40 -11 44 -7 4 -10 -5 -9 -27z"/>
<path d="M268 8373 c-7 -36 4 -73 22 -73 24 0 61 -39 74 -80 15 -46 57 -60 95
-33 41 31 38 49 -11 71 -24 11 -70 45 -103 76 -33 30 -63 56 -67 56 -3 0 -8
-8 -10 -17z"/>
<path d="M9337 7749 c-26 -56 -28 -65 -21 -142 4 -45 7 -109 6 -142 0 -33 4
-123 9 -200 10 -133 12 -141 40 -172 16 -19 29 -42 29 -53 0 -23 12 -31 29
-20 11 6 14 42 13 156 -1 181 -5 257 -13 264 -3 3 -9 70 -12 149 -5 117 -9
146 -22 153 -8 5 -13 13 -10 19 4 5 0 17 -7 28 -12 17 -16 14 -41 -40z"/>
<path d="M3764 7575 c2 -11 7 -29 11 -40 6 -16 3 -15 -14 5 -25 30 -25 29 -6
-33 22 -74 65 -147 87 -147 10 0 18 -5 18 -11 0 -6 6 -9 13 -6 6 2 11 11 9 21
-2 9 2 16 8 16 5 0 10 6 10 14 0 7 7 19 15 26 21 17 19 33 -3 25 -15 -4 -19 0
-20 24 -1 31 -28 71 -49 71 -7 0 -13 -6 -13 -12 -1 -7 -8 -1 -16 15 -8 15 -21
27 -28 27 -8 0 -17 6 -20 13 -4 6 -4 3 -2 -8z"/>
<path d="M10470 7460 c-15 -9 -16 -13 -19 -48 0 -10 -10 -28 -21 -40 -11 -12
-20 -27 -20 -34 0 -7 -16 -24 -35 -37 -25 -17 -35 -31 -35 -50 0 -20 2 -23 10
-11 8 12 10 12 16 -3 4 -12 13 -15 33 -11 14 4 30 11 35 15 6 5 19 9 29 9 13
0 17 5 13 15 -3 8 0 15 6 15 23 0 78 45 79 65 0 20 0 20 8 0 8 -19 8 -19 20 4
7 12 10 29 7 37 -3 8 1 17 9 20 19 8 19 24 0 24 -8 0 -19 -9 -25 -20 -11 -20
-13 -19 -50 20 -43 45 -40 43 -60 30z"/>
<path d="M5153 7349 c-7 -6 -25 -13 -40 -14 -62 -4 -63 -5 -56 -22 16 -41 50
-60 108 -58 30 1 58 5 62 8 11 12 23 8 23 -8 0 -17 16 -20 25 -4 4 5 18 14 31
19 23 9 34 40 14 40 -5 0 -10 7 -10 15 0 8 -4 15 -10 15 -5 0 -10 -6 -10 -12
0 -10 -2 -10 -8 0 -15 23 -112 39 -129 21z"/>
<path d="M10760 7335 c-9 -10 -16 -12 -25 -5 -12 10 -75 -8 -75 -22 0 -4 -5
-8 -11 -8 -19 0 -41 -30 -35 -47 6 -14 -29 -50 -44 -46 -3 0 -13 -3 -24 -9
-13 -7 -21 -7 -26 2 -8 14 -15 10 -66 -37 -14 -13 -27 -23 -30 -23 -3 0 -12
-7 -21 -15 -9 -9 -23 -13 -34 -10 -11 4 -19 2 -19 -4 0 -6 -7 -11 -15 -11 -9
0 -15 -9 -15 -22 0 -21 0 -21 -14 -2 -14 18 -15 18 -21 -9 -6 -21 -10 -25 -21
-16 -9 7 -18 7 -31 0 -14 -8 -15 -10 -3 -11 13 0 13 -2 1 -9 -8 -5 -21 -7 -28
-4 -9 4 -14 0 -12 -8 4 -24 -13 -53 -57 -96 -36 -34 -40 -42 -26 -48 9 -3 21
0 27 9 7 9 28 14 58 14 26 -1 53 4 59 10 7 7 18 12 25 12 7 0 31 11 53 25 22
14 46 25 55 25 8 0 15 9 15 21 0 11 4 18 9 15 10 -6 65 19 100 46 13 10 32 18
41 18 10 0 20 9 23 20 3 11 13 23 24 27 27 10 45 31 37 44 -4 7 -3 9 4 5 6 -3
13 -2 17 4 3 5 13 10 21 10 8 0 20 5 27 10 7 6 31 24 55 41 35 26 42 36 42 64
0 40 -22 62 -40 40z"/>
<path d="M7060 7215 c-7 -8 -18 -15 -25 -15 -7 0 -17 -6 -23 -13 -6 -7 -41
-28 -77 -47 -84 -43 -114 -82 -126 -163 -5 -34 -10 -69 -12 -77 -1 -8 -14 -32
-28 -52 -18 -27 -24 -46 -21 -69 4 -30 6 -31 41 -24 20 4 50 9 66 10 52 4 105
17 105 25 0 5 9 6 20 3 11 -3 35 2 54 11 19 9 39 16 45 16 9 0 98 46 111 57 2
2 -16 21 -40 42 -37 32 -44 43 -43 72 2 38 6 59 14 74 14 23 19 68 9 79 -5 7
-11 25 -12 39 -1 14 -6 23 -10 21 -4 -3 -8 2 -8 10 0 20 -24 21 -40 1z"/>
<path d="M6375 6956 c-16 -6 -35 -14 -42 -19 -11 -7 -46 -97 -40 -103 2 -2 15
3 29 10 14 8 50 17 79 21 66 9 116 29 99 40 -7 4 -16 2 -21 -6 -4 -7 -11 -10
-15 -6 -11 11 2 20 42 26 22 4 42 15 52 29 14 22 14 22 -11 13 -17 -7 -27 -7
-29 1 -3 7 -17 6 -46 -2 -27 -9 -46 -10 -54 -3 -8 6 -24 6 -43 -1z"/>
<path d="M9760 6960 c0 -7 -8 -9 -20 -5 -24 8 -72 -39 -63 -61 3 -9 -2 -14
-15 -14 -26 0 -37 -32 -20 -59 14 -23 38 -28 39 -8 0 6 4 4 8 -6 9 -25 25 -23
31 5 3 13 12 24 20 24 8 1 22 2 31 3 10 1 17 11 17 29 1 15 3 43 4 62 2 26 -1
35 -14 38 -10 2 -18 -2 -18 -8z"/>
<path d="M9880 6823 c-14 -9 -27 -20 -30 -24 -3 -3 -20 -10 -38 -14 -30 -6
-33 -9 -27 -36 6 -28 -9 -42 -18 -16 -3 9 -8 9 -21 -2 -14 -12 -19 -12 -26 -1
-6 10 -13 8 -31 -9 -25 -23 -39 -27 -39 -11 0 18 -18 11 -23 -9 -2 -11 -22
-28 -43 -39 -22 -11 -52 -33 -69 -48 -16 -16 -34 -29 -39 -29 -5 0 -10 -7 -12
-17 -1 -9 -7 -24 -13 -35 -9 -16 -10 -16 -11 -1 0 25 -19 32 -45 18 -23 -12
-23 -15 -10 -41 21 -39 34 -44 51 -20 8 11 25 20 37 20 25 -1 40 3 80 19 16 7
33 12 38 12 5 0 35 20 67 45 31 25 65 45 74 45 9 0 25 11 35 23 10 13 30 30
43 37 14 7 32 21 40 30 8 9 23 20 34 23 14 6 16 10 7 21 -8 10 -6 19 9 39 32
41 23 50 -20 20z"/>
<path d="M0 6756 l0 -43 78 -30 c42 -17 95 -36 117 -43 22 -7 45 -16 50 -20 6
-4 24 -11 41 -14 18 -4 52 -20 76 -35 24 -16 67 -36 94 -45 61 -20 124 -62
124 -81 0 -11 12 -15 45 -15 38 0 45 -3 45 -20 0 -21 16 -28 22 -9 6 18 36 -1
50 -31 12 -27 14 -28 31 -12 15 13 22 14 37 4 11 -7 29 -12 40 -12 11 0 90
-29 176 -65 86 -36 158 -65 160 -65 2 0 4 4 4 9 0 8 -125 72 -257 131 -29 13
-53 28 -53 32 0 5 -4 7 -9 4 -5 -4 -22 1 -38 9 -59 32 -442 213 -463 220 -12
4 -67 30 -123 57 -56 28 -135 66 -174 84 l-73 33 0 -43z"/>
<path d="M6405 6645 c-16 -13 -37 -24 -46 -25 -9 0 -18 -3 -22 -6 -8 -9 15
-44 30 -44 6 0 15 -9 18 -20 4 -11 11 -18 16 -15 5 4 9 -3 9 -13 0 -11 10 -26
23 -35 l22 -15 -35 -33 c-46 -44 -73 -47 -65 -8 4 19 3 29 -5 29 -7 0 -10 7
-6 15 4 11 -1 15 -18 15 -27 0 -73 -48 -78 -81 -3 -26 -28 -39 -28 -15 0 9 -6
16 -14 16 -8 0 -18 5 -21 11 -8 12 40 89 55 89 6 0 9 12 8 28 -1 15 2 36 6 48
3 12 2 32 -3 45 -9 23 -10 22 -10 -8 -1 -18 -5 -33 -11 -33 -5 0 -10 -8 -10
-18 0 -10 -9 -28 -19 -39 -11 -12 -17 -24 -14 -27 4 -3 -2 -6 -13 -6 -11 1
-33 20 -52 45 -36 50 -57 57 -66 21 -4 -18 -11 -22 -30 -19 -14 3 -33 14 -42
24 -33 37 -36 25 -19 -83 3 -16 0 -28 -5 -28 -6 0 -10 18 -10 40 0 22 -4 40
-10 40 -5 0 -8 -17 -6 -37 3 -29 -2 -43 -23 -65 -14 -16 -25 -31 -25 -36 1 -4
-10 -12 -25 -19 -25 -11 -24 -11 9 -6 33 6 34 5 20 -13 -22 -28 -33 -34 -45
-24 -8 6 -20 2 -36 -13 -13 -12 -34 -23 -47 -24 -14 -1 -32 -8 -41 -16 -23
-21 -58 -30 -66 -17 -3 5 -28 10 -56 10 -50 0 -62 13 -37 38 19 19 -5 13 -32
-8 -14 -11 -35 -20 -47 -20 -24 0 -29 -15 -13 -40 8 -12 11 -13 19 -1 6 9 11
10 15 2 5 -7 14 -6 31 5 15 10 25 12 30 5 3 -6 14 -11 24 -11 10 0 24 -6 30
-14 10 -12 7 -18 -18 -30 -19 -10 -32 -12 -36 -6 -9 14 -35 12 -69 -5 -39 -21
-125 -20 -141 1 -11 15 -14 15 -38 -6 -32 -28 -34 -40 -7 -40 15 0 18 -6 15
-31 -6 -46 -23 -62 -65 -57 -19 3 -48 -1 -65 -9 -20 -9 -23 -13 -8 -10 12 3
27 -1 34 -9 19 -23 -13 -27 -66 -10 -25 9 -50 14 -54 11 -5 -2 -23 7 -41 20
-27 20 -30 25 -14 25 11 0 29 -7 40 -15 12 -8 24 -11 28 -8 9 9 -64 44 -75 37
-5 -3 -12 2 -15 11 -4 9 -19 22 -35 31 -26 13 -29 13 -29 -1 0 -8 5 -15 11
-15 5 0 7 -4 4 -10 -8 -13 -55 -13 -55 0 0 6 -8 14 -17 17 -26 10 -53 36 -47
45 3 4 -2 8 -11 8 -8 0 -18 7 -21 15 -6 15 -44 22 -44 8 1 -18 29 -43 48 -43
22 0 35 -22 26 -45 -5 -11 1 -15 26 -15 17 0 29 -4 26 -9 -3 -5 1 -11 9 -15 8
-3 17 -1 20 4 3 5 13 9 23 9 9 -1 27 2 40 6 26 9 30 -10 7 -35 -14 -16 -13
-18 16 -24 18 -3 29 -9 26 -13 -4 -3 -3 -11 2 -17 17 -21 -38 -66 -80 -66 -18
0 -20 4 -15 25 4 14 2 25 -4 25 -5 0 -10 -7 -10 -15 0 -7 -8 -19 -17 -24 -17
-10 -17 -10 2 -11 13 0 16 -3 9 -10 -13 -13 -118 -16 -159 -5 -16 4 -41 18
-55 30 -14 12 -33 25 -42 28 -11 4 -18 17 -18 32 0 14 -4 25 -9 25 -12 0 -6
-45 21 -164 15 -65 25 -90 38 -93 22 -6 36 -106 20 -147 -6 -18 -7 -41 0 -69
5 -23 10 -59 10 -80 0 -45 35 -190 53 -218 6 -10 17 -19 24 -19 17 0 16 -8 -3
-27 -11 -12 -12 -18 -4 -23 9 -6 9 -9 -1 -12 -20 -7 0 -28 27 -28 l25 0 -21
-22 c-11 -12 -18 -29 -15 -36 4 -10 0 -12 -11 -8 -11 4 -14 1 -10 -12 2 -9 10
-53 16 -97 6 -44 15 -102 20 -130 5 -27 12 -72 15 -100 9 -74 51 -226 59 -218
9 9 53 15 123 17 l52 1 7 50 c3 28 17 84 30 125 29 92 29 89 2 83 -16 -4 -20
-2 -13 5 6 5 18 12 28 14 11 1 32 27 47 57 16 30 33 57 37 60 5 3 17 19 27 34
10 16 38 38 63 49 38 17 58 19 127 14 44 -3 98 -6 119 -6 35 0 51 -13 25 -23
-7 -2 -11 -6 -8 -9 3 -2 24 -19 48 -37 54 -42 93 -99 122 -177 18 -52 25 -61
42 -56 11 3 24 -1 29 -9 7 -10 9 -1 7 28 -3 51 7 64 27 36 15 -21 16 -21 56
-5 23 9 53 31 68 49 25 31 51 44 51 24 0 -11 -79 -91 -91 -91 -4 0 -11 -9 -14
-20 -4 -13 -15 -20 -33 -20 -46 0 -57 -15 -26 -34 29 -20 54 -13 103 29 21 17
20 13 -7 -25 -18 -25 -28 -46 -22 -48 18 -6 11 -26 -17 -47 -17 -14 -23 -26
-18 -35 6 -10 10 -9 17 4 5 9 13 16 19 16 5 0 2 -11 -6 -24 -9 -13 -12 -26 -8
-28 4 -3 2 -3 -5 -2 -7 2 -15 -3 -18 -11 -8 -20 -16 -19 -43 4 -18 16 -23 31
-24 80 -2 54 -5 61 -30 76 -16 9 -30 15 -33 13 -2 -3 0 -40 6 -84 20 -176 26
-337 15 -474 -9 -112 -7 -188 11 -351 4 -45 3 -68 -5 -73 -6 -4 -8 -18 -5 -33
5 -19 4 -24 -5 -19 -7 5 -11 25 -9 49 3 36 0 42 -17 42 -11 0 -23 5 -28 10 -4
6 -5 -26 -3 -70 l5 -80 -14 80 c-7 44 -14 82 -14 84 -1 2 -10 1 -21 -2 -11 -3
-23 -1 -26 4 -3 5 -13 5 -25 -1 -14 -8 -17 -16 -11 -28 16 -31 14 -108 -3
-122 -8 -7 -15 -17 -15 -22 0 -6 6 -5 15 2 18 15 35 5 35 -23 0 -17 -2 -19 -9
-8 -13 20 -59 6 -63 -19 -3 -17 -6 -15 -21 12 -14 25 -15 29 -2 18 21 -18 26
-9 19 30 l-7 33 -19 -27 c-11 -14 -24 -23 -29 -20 -6 3 -22 7 -37 9 -24 2 -24
2 -8 -10 19 -14 14 -35 -8 -35 -8 0 -19 7 -26 15 -18 22 -32 18 -20 -5 6 -11
20 -20 30 -20 26 0 25 -12 0 -30 -16 -11 -19 -22 -14 -46 4 -23 2 -33 -10 -37
-10 -4 -13 -12 -9 -24 6 -17 6 -17 -12 0 -11 12 -14 21 -8 25 17 12 24 97 9
117 -11 15 -12 9 -8 -40 4 -46 2 -57 -9 -53 -8 3 -13 14 -11 26 2 11 -3 24 -9
28 -9 5 -10 2 -6 -10 4 -10 3 -15 -4 -11 -5 4 -8 14 -5 23 3 10 -2 28 -10 42
-15 24 -15 23 -10 -25 l5 -50 -19 40 c-11 22 -20 46 -20 53 0 17 -15 15 -35
-4 -23 -23 -16 -60 10 -56 11 2 16 0 12 -5 -5 -4 -19 -8 -30 -8 -13 0 -22 -6
-22 -15 0 -17 -34 -24 -54 -11 -10 6 -12 23 -6 70 6 53 10 62 31 67 29 7 58
-2 49 -16 -3 -5 6 -5 24 1 20 7 36 7 49 0 21 -11 57 -5 87 16 18 12 15 13 -28
12 -26 -1 -50 1 -54 4 -3 4 3 7 15 7 12 0 22 4 22 9 0 5 9 7 19 4 11 -3 28 0
38 7 17 10 16 11 -3 7 -12 -3 -28 -1 -35 4 -8 4 -19 3 -26 -3 -8 -7 -13 -7
-13 0 0 6 -13 5 -35 -2 -42 -15 -55 -26 -29 -26 16 0 17 -2 4 -10 -18 -12 -40
-13 -40 -2 0 5 9 18 20 30 22 23 27 40 8 24 -17 -13 -115 -15 -102 -2 5 5 27
14 49 19 32 7 35 9 13 10 -15 1 -30 6 -33 11 -9 15 -25 12 -25 -5 0 -8 -10
-20 -22 -26 -19 -9 -21 -9 -10 2 17 18 15 29 -5 29 -24 -1 -57 -26 -44 -34 6
-4 6 -19 -1 -43 -7 -26 -7 -38 1 -41 6 -2 8 -17 5 -35 l-6 -32 21 25 c18 23
18 26 4 42 -14 16 -14 18 -1 18 9 0 21 -6 27 -14 10 -12 8 -19 -8 -35 -12 -12
-21 -29 -21 -40 0 -10 -9 -21 -19 -24 -21 -5 -24 8 -35 150 -3 47 -2 52 20 57
25 7 30 28 18 74 -7 25 -24 30 -24 7 0 -8 -7 -15 -15 -15 -8 0 -15 5 -15 11 0
6 -9 9 -20 6 -26 -7 -29 0 -35 69 -3 31 -10 64 -15 73 -4 9 -11 37 -15 61 -4
25 -9 48 -11 52 -2 3 0 9 4 12 11 7 3 56 -9 56 -11 0 -11 4 -15 -110 -2 -52 1
-120 7 -150 6 -30 12 -64 13 -76 2 -11 6 -26 10 -32 9 -15 17 -152 10 -175 -3
-11 -12 -16 -20 -13 -22 8 -16 -6 16 -43 17 -18 30 -36 31 -40 1 -3 2 -27 3
-53 2 -49 -8 -60 -32 -36 -8 8 -12 9 -12 1 0 -11 56 -73 66 -73 3 0 15 -10 27
-21 15 -15 18 -23 10 -26 -7 -3 -13 -12 -13 -20 0 -11 -7 -14 -24 -9 -15 4
-26 1 -29 -7 -3 -8 -19 -20 -37 -29 l-31 -15 72 -7 c76 -8 89 -2 89 37 0 10 7
40 16 67 12 38 14 60 6 107 -5 32 -13 66 -17 76 -8 20 10 23 30 5 45 -41 45
-40 140 -33 l94 7 7 -25 c4 -18 11 -24 22 -20 12 5 14 1 10 -15 -6 -23 1 -28
18 -13 24 23 322 43 394 27 42 -10 70 -33 70 -58 0 -30 20 -21 36 17 18 44 18
47 -3 71 -21 24 -27 44 -13 44 12 0 86 -57 173 -133 45 -40 65 -51 85 -49 48
6 64 33 68 111 1 39 -2 71 -7 71 -12 0 -11 47 1 55 6 4 8 14 6 23 -3 10 -2 23
3 31 8 12 13 12 35 -3 20 -12 26 -26 28 -54 3 -65 4 -77 12 -94 5 -10 12 -15
17 -12 5 3 9 -5 9 -18 0 -13 7 -36 16 -53 11 -22 14 -44 9 -82 -4 -34 -2 -53
5 -53 5 0 10 -7 10 -15 0 -8 -5 -15 -11 -15 -6 0 -7 -5 -2 -12 14 -23 31 -78
23 -78 -3 0 -7 -13 -7 -30 0 -16 3 -30 6 -30 3 0 7 -11 7 -24 1 -16 -5 -26
-18 -29 -12 -4 -17 -10 -13 -17 4 -7 8 -32 9 -56 1 -36 -1 -44 -16 -44 -10 0
-18 -4 -18 -9 0 -5 -18 -28 -40 -51 -27 -29 -37 -46 -29 -50 8 -6 8 -9 -2 -12
-7 -2 -13 -14 -14 -27 -1 -19 3 -22 28 -19 17 2 33 10 38 18 21 42 49 111 49
123 0 8 6 14 14 14 12 0 14 -13 11 -56 l-3 -56 10 43 c12 45 35 57 40 20 2
-13 11 -24 20 -26 12 -2 16 1 12 11 -3 8 -1 18 5 21 7 5 9 -8 5 -39 -3 -32 0
-52 10 -67 9 -12 16 -17 16 -10 0 6 5 12 10 12 6 0 10 -6 10 -14 0 -8 5 -18
11 -22 8 -5 10 1 7 18 -3 14 2 34 9 44 13 17 13 13 7 -32 -4 -36 -3 -54 6 -59
9 -6 10 0 5 23 -3 16 -2 33 3 36 10 6 54 -49 45 -58 -4 -3 -7 -21 -9 -38 -1
-18 0 -25 3 -15 3 10 14 17 28 17 13 0 27 4 30 10 6 9 -8 14 -27 11 -5 0 -8 6
-8 14 0 9 6 12 15 9 10 -4 15 0 15 15 0 12 0 24 0 29 0 4 -6 7 -12 7 -7 0 -12
-9 -10 -20 2 -19 2 -19 -9 -2 -8 13 -8 22 -1 29 15 15 43 2 49 -22 3 -11 10
-20 17 -20 24 0 40 -18 28 -32 -7 -8 -7 -19 -2 -28 11 -18 20 -9 24 24 1 14 6
29 9 32 9 10 38 -16 31 -28 -3 -5 2 -8 12 -6 12 2 18 -2 16 -10 -2 -13 35 -51
52 -52 5 0 15 8 22 17 7 10 16 15 20 11 4 -4 1 -14 -6 -23 -7 -9 -10 -18 -7
-21 9 -9 45 19 50 38 3 10 10 18 17 18 7 0 6 -8 -4 -22 -19 -27 -21 -41 -3
-33 6 3 2 -2 -10 -11 -30 -22 -29 -38 2 -30 22 6 25 2 36 -36 15 -52 15 -52
28 -44 7 5 7 14 -1 31 -12 26 -3 95 12 95 6 0 10 -4 10 -9 0 -5 5 -22 10 -37
10 -26 11 -26 30 -9 12 10 20 13 20 7 0 -7 -4 -12 -10 -12 -5 0 -10 -7 -10
-15 0 -25 25 -17 43 15 20 32 44 39 53 15 8 -20 -13 -45 -37 -45 -11 0 -19 -5
-19 -11 0 -6 6 -9 14 -6 13 5 50 -29 51 -48 0 -5 -5 -16 -12 -23 -10 -10 -16
-10 -34 0 -17 10 -23 10 -26 1 -3 -7 -11 -13 -19 -13 -8 0 -14 -7 -14 -15 0
-8 -16 -22 -35 -31 -22 -10 -35 -23 -35 -35 0 -28 17 -23 24 6 4 14 11 23 17
20 7 -5 6 -11 -2 -21 -8 -10 -7 -17 4 -29 25 -24 35 -18 32 21 -2 23 1 37 10
41 8 2 17 14 21 25 4 12 10 16 15 11 11 -11 -12 -61 -33 -74 -10 -7 -8 -12 10
-24 12 -9 22 -23 22 -31 0 -8 7 -17 15 -20 8 -4 15 -14 15 -24 0 -10 10 -25
23 -33 l22 -16 -22 6 c-28 7 -33 -24 -5 -34 9 -4 21 -12 25 -20 4 -7 18 -14
30 -14 17 -1 18 -2 5 -6 -10 -2 -18 -9 -18 -14 0 -5 -7 -9 -15 -9 -8 0 -15 -7
-15 -16 0 -8 5 -12 10 -9 6 3 10 -3 10 -14 0 -12 5 -21 10 -21 6 0 10 14 10
31 0 20 4 29 13 26 6 -2 11 -16 9 -31 -2 -15 2 -26 9 -26 8 0 10 13 7 38 -7
49 7 62 58 52 21 -4 33 -8 27 -9 -19 -2 -16 -38 3 -45 9 -3 25 -6 35 -6 12 0
17 -4 13 -11 -3 -6 -15 -9 -25 -6 -10 3 -20 0 -23 -7 -2 -6 -5 -3 -5 7 -1 20
-17 23 -24 3 -7 -18 11 -36 29 -29 8 3 14 -1 14 -11 0 -9 5 -16 11 -16 6 0 9
-10 7 -22 -2 -17 -10 -23 -27 -23 -18 0 -27 10 -42 49 -13 34 -15 54 -9 67 13
24 13 29 -5 29 -11 0 -15 -12 -15 -49 0 -29 5 -51 12 -53 14 -5 2 -58 -13 -58
-6 0 -8 9 -4 19 5 16 1 19 -21 16 -21 -2 -28 3 -36 25 -5 17 -16 27 -26 26
-11 -1 -16 5 -14 17 2 9 -2 17 -8 17 -5 0 -10 7 -10 15 0 27 -16 16 -29 -21
-10 -27 -16 -33 -22 -23 -7 11 -9 10 -9 -3 0 -10 5 -18 10 -18 17 0 11 -38 -7
-50 -17 -11 -17 -11 0 -6 10 3 23 6 29 6 6 0 8 13 4 33 -8 44 7 68 25 38 8
-11 19 -21 26 -21 7 0 13 -11 13 -25 0 -15 -5 -25 -12 -24 -27 3 -38 -2 -38
-16 0 -8 -4 -15 -9 -15 -13 0 -23 -82 -11 -94 10 -10 14 2 11 31 -2 14 45 11
60 -4 13 -13 8 -69 -6 -65 -5 1 -10 12 -10 25 0 13 -6 22 -15 22 -10 0 -15
-11 -15 -35 0 -32 -2 -35 -27 -32 -23 3 -28 -1 -28 -17 0 -22 -14 -28 -25 -10
-4 5 1 19 10 29 9 10 14 24 10 30 -4 6 -1 17 5 25 10 12 9 15 -9 15 -12 0 -21
6 -21 15 0 8 -7 15 -15 15 -8 0 -15 -5 -15 -10 0 -6 -11 -20 -25 -32 -29 -25
-33 -42 -7 -34 21 7 54 -13 35 -21 -20 -8 -15 -40 9 -57 12 -9 17 -16 11 -16
-15 0 -28 14 -53 58 -11 17 -27 32 -36 32 -12 0 -14 6 -9 31 5 22 3 34 -6 40
-22 14 -28 11 -22 -11 4 -16 0 -20 -19 -20 -31 0 -41 -10 -27 -27 9 -10 8 -13
-5 -13 -9 0 -16 5 -16 11 0 5 -4 8 -10 4 -5 -3 -7 -12 -3 -20 3 -8 2 -22 -1
-31 -6 -15 -8 -15 -26 1 -10 9 -23 14 -29 11 -5 -3 -11 -1 -13 4 -2 6 -21 13
-43 16 l-40 5 43 -22 c49 -25 53 -43 13 -64 -16 -8 -32 -20 -34 -27 -4 -10 -8
-9 -16 2 -14 20 -14 33 1 24 7 -4 8 -3 4 4 -4 6 -14 8 -23 5 -9 -4 -21 1 -29
11 -12 17 -13 16 -23 -3 -9 -17 -9 -20 3 -15 8 3 24 -3 35 -13 19 -17 19 -19
1 -41 -21 -26 -50 -20 -50 11 0 11 -2 18 -5 16 -8 -9 7 -109 17 -109 5 0 15
14 21 30 6 17 16 30 22 30 6 0 21 9 33 20 12 11 28 20 36 20 8 0 16 6 19 13 2
6 8 9 12 5 4 -4 2 -14 -5 -23 -10 -12 -10 -15 3 -15 18 0 27 -21 27 -66 0 -24
5 -34 15 -34 13 0 13 3 3 19 -10 16 -9 23 6 39 13 15 14 21 5 24 -10 3 -10 6
-1 12 7 4 12 2 12 -3 0 -6 6 -11 14 -11 7 0 19 -6 25 -14 10 -11 8 -16 -5 -24
-18 -10 -20 -20 -25 -102 -1 -25 -7 -51 -12 -58 -13 -16 -1 -28 36 -38 l28 -6
-20 33 c-28 45 -28 69 -1 44 11 -10 20 -25 20 -33 0 -8 9 -23 21 -33 27 -23
16 -42 -21 -34 -33 7 -43 -4 -31 -37 6 -18 4 -27 -12 -41 -11 -9 -23 -15 -25
-12 -3 3 3 11 14 19 18 14 18 15 -5 33 -25 20 -22 43 5 43 8 0 14 5 14 10 0 6
-9 10 -20 10 -11 0 -20 5 -20 11 0 6 -6 9 -12 6 -7 -2 -12 -13 -10 -25 2 -12
-1 -30 -7 -39 -9 -15 -10 -13 -11 15 0 29 -3 32 -29 32 -21 0 -32 -6 -36 -20
-7 -22 -20 -26 -31 -9 -3 6 0 15 7 20 10 6 11 9 1 9 -10 0 -10 4 0 20 7 10 15
15 18 11 3 -5 17 -9 32 -9 26 0 26 1 12 24 -22 33 -10 45 37 38 30 -5 39 -3
38 7 -1 20 -17 57 -18 41 -1 -9 -8 -11 -21 -7 -15 5 -18 3 -14 -9 5 -12 -1
-16 -22 -16 -16 0 -36 5 -44 10 -12 8 -9 10 13 10 15 0 27 5 27 11 0 7 -10 9
-25 5 -17 -4 -25 -2 -25 7 0 9 9 12 30 9 25 -3 29 -1 24 12 -7 19 -35 20 -81
4 -38 -14 -43 -34 -10 -48 27 -11 78 -53 57 -47 -8 2 -20 -3 -26 -12 -7 -8
-28 -16 -47 -16 -31 -1 -36 2 -41 27 -4 20 -12 28 -26 28 -11 0 -20 -4 -20
-10 0 -5 4 -10 9 -10 9 0 18 -22 30 -70 4 -16 13 -24 24 -22 10 2 17 -4 17
-14 0 -10 -5 -14 -14 -11 -10 4 -12 0 -9 -14 3 -10 10 -19 17 -19 6 0 3 -5 -7
-11 -9 -5 -22 -7 -27 -4 -6 3 -10 -1 -10 -9 0 -20 19 -20 48 0 20 14 23 14 28
-1 4 -9 4 -31 1 -50 -4 -26 -2 -35 8 -35 8 0 17 -5 21 -11 5 -9 -4 -10 -32 -4
-49 9 -51 11 -30 34 27 30 16 42 -42 45 -49 3 -65 -5 -42 -19 17 -10 2 -24
-20 -18 -15 4 -18 9 -10 18 8 10 5 17 -12 29 -31 22 -51 21 -43 -3 4 -14 1
-18 -11 -17 -9 0 -19 -5 -21 -11 -3 -7 2 -13 11 -13 9 0 16 -6 16 -14 0 -22
-18 -28 -28 -10 -7 12 -11 13 -17 4 -4 -6 -2 -17 4 -23 14 -14 15 -47 1 -47
-5 0 -7 7 -4 15 4 10 0 15 -16 15 -18 0 -20 4 -15 23 11 33 11 35 3 36 -20 3
-23 -1 -24 -25 -2 -24 46 -84 67 -84 5 0 6 -7 3 -15 -4 -9 0 -15 9 -15 10 0
17 15 21 45 7 43 26 64 26 27 0 -25 39 -40 72 -28 18 7 39 6 65 -2 35 -11 39
-10 55 11 10 12 18 16 18 10 0 -7 6 -13 13 -13 6 0 20 -11 29 -24 15 -20 15
-26 2 -51 -21 -41 -18 -76 7 -82 15 -4 17 -8 8 -13 -16 -10 -49 10 -50 30 0
10 -2 11 -6 3 -5 -14 -50 -8 -67 8 -6 5 -18 9 -29 9 -14 0 -17 5 -12 20 7 23
-10 28 -19 5 -8 -21 -26 -19 -26 3 0 13 -2 14 -9 3 -6 -9 -11 -10 -15 -2 -8
13 2 34 13 27 4 -3 13 -1 21 4 13 8 13 11 1 22 -10 10 -15 10 -18 1 -2 -7 -11
-9 -19 -6 -9 3 -17 -5 -24 -22 -9 -22 -13 -25 -25 -15 -12 10 -16 9 -21 -4 -3
-9 -10 -13 -15 -10 -5 3 -7 10 -4 15 10 15 -21 22 -44 10 -17 -9 -20 -9 -15 3
3 8 12 16 20 18 11 2 10 6 -5 15 -17 11 -19 10 -15 -2 7 -17 -11 -21 -21 -5
-3 6 -10 10 -16 10 -17 0 -9 -20 9 -21 14 0 13 -3 -5 -16 -13 -8 -23 -22 -23
-30 0 -9 -6 -13 -14 -10 -7 3 -19 0 -25 -6 -14 -14 -25 -3 -18 18 4 8 15 15
26 15 27 0 35 17 17 35 -9 9 -17 11 -21 5 -3 -5 -1 -10 4 -10 6 0 11 -4 11
-10 0 -5 -7 -10 -16 -10 -9 0 -29 -14 -45 -31 -16 -17 -27 -24 -23 -15 3 9 1
16 -5 16 -6 0 -11 -9 -11 -19 0 -11 -4 -21 -9 -23 -9 -3 -14 -28 -12 -61 1
-14 7 -16 31 -12 29 5 41 -7 20 -20 -17 -10 -11 -33 10 -40 26 -8 60 11 60 35
0 11 5 20 10 20 6 0 10 -9 10 -20 0 -11 -5 -20 -12 -20 -9 0 -9 -3 0 -12 10
-10 15 -10 22 2 8 13 13 13 31 2 18 -11 24 -11 40 4 10 9 19 23 19 31 0 21 18
15 25 -8 5 -16 9 -18 15 -9 5 8 8 4 7 -13 -1 -14 -4 -25 -7 -24 -12 4 -58 -41
-51 -49 5 -5 4 -20 -1 -34 l-11 -25 -7 34 c-5 19 -6 41 -3 50 4 13 3 13 -5 2
-5 -7 -8 -32 -6 -55 3 -29 1 -37 -6 -26 -5 8 -10 23 -10 33 0 21 -9 22 -38 2
-20 -14 -21 -14 -16 0 3 8 2 15 -4 15 -5 0 -12 -9 -15 -20 -3 -11 -12 -20 -20
-20 -12 0 -14 -9 -10 -40 5 -35 3 -41 -18 -49 -31 -13 -3 -14 39 -2 17 5 32 6
32 1 0 -13 -94 -24 -98 -11 -2 6 -11 11 -20 10 -10 0 -12 -3 -5 -5 12 -5 -1
-26 -41 -65 -11 -11 -14 -19 -8 -19 7 0 12 -14 12 -32 0 -17 -3 -28 -7 -25 -3
4 -12 2 -20 -4 -10 -9 -13 -6 -14 12 -1 20 -3 18 -10 -9 -6 -18 -16 -36 -25
-39 -11 -4 -12 -9 -3 -19 6 -7 12 -37 13 -66 2 -43 -1 -56 -18 -70 -21 -17
-21 -17 -1 -33 20 -15 20 -16 -5 -13 -15 2 -29 12 -35 26 -5 12 -15 22 -21 22
-6 0 -14 14 -18 31 -4 24 -2 35 11 44 14 10 15 16 5 27 -6 8 -10 17 -8 19 9
10 15 89 6 89 -6 0 -10 -8 -10 -17 0 -15 -2 -16 -10 -3 -5 8 -10 32 -10 52 0
40 -17 60 -26 31 -3 -10 -10 -26 -15 -35 -18 -34 -8 -135 12 -122 5 3 9 0 9
-6 0 -6 4 -8 10 -5 6 3 10 -5 10 -19 0 -30 -9 -56 -21 -56 -4 0 -6 7 -3 15 4
10 0 15 -12 15 -18 0 -44 40 -44 67 0 7 -8 13 -18 13 -31 0 -41 -20 -35 -71 5
-45 4 -49 -16 -49 -20 0 -29 -15 -13 -22 13 -5 23 -68 12 -68 -6 0 -10 4 -10
8 0 12 -32 11 -48 -2 -44 -35 -53 -48 -47 -67 4 -11 3 -19 -2 -18 -22 4 -33
-3 -33 -20 0 -11 -4 -23 -10 -26 -15 -9 -12 -25 6 -25 8 0 12 -5 8 -11 -3 -6
-17 -8 -30 -5 -28 7 -30 1 -9 -20 8 -9 15 -24 15 -35 0 -21 25 -26 33 -6 4 10
6 10 6 0 1 -7 8 -13 16 -13 11 0 14 7 9 24 -3 13 -1 27 5 30 6 4 11 -1 12 -11
2 -28 17 26 18 64 1 22 7 34 21 38 14 4 20 15 20 34 0 35 24 60 34 36 3 -9 2
-24 -3 -34 -11 -20 8 -66 24 -60 6 2 9 7 7 12 -1 4 2 7 8 7 17 0 11 -41 -11
-77 -12 -20 -18 -38 -13 -43 15 -15 64 -23 64 -11 0 6 -4 11 -9 11 -5 0 -8 26
-7 58 1 48 4 57 19 56 13 -1 17 6 18 30 1 17 3 23 6 14 2 -10 10 -18 18 -18 8
0 11 -7 8 -20 -4 -14 -1 -19 8 -15 17 6 21 55 5 55 -6 0 -17 9 -24 20 -7 12
-8 20 -2 20 6 0 8 15 4 40 -6 33 -4 40 10 40 13 0 16 -5 11 -20 -4 -14 -2 -20
8 -20 8 0 18 -11 21 -25 4 -14 11 -25 16 -25 6 0 10 -10 10 -22 0 -13 7 -44
14 -70 10 -31 12 -56 6 -75 -7 -23 -8 -24 -9 -6 -1 25 -21 42 -21 18 0 -9 -6
-15 -12 -12 -12 4 -37 -20 -38 -35 0 -5 1082 -8 2405 -8 l2405 0 -1 2762 c0
2414 -2 2758 -15 2723 -9 -26 -26 -48 -44 -59 -17 -9 -28 -22 -25 -27 4 -5 -6
-9 -22 -10 -15 -1 -51 -3 -80 -5 -41 -3 -55 0 -65 14 -18 23 -68 55 -68 42 0
-15 -26 -12 -40 5 -11 14 -15 48 -11 118 1 31 21 38 21 7 0 -11 6 -20 14 -20
18 0 28 70 30 230 2 147 16 186 96 267 28 28 50 55 50 61 0 16 -67 24 -103 13
-18 -6 -56 -18 -84 -27 -29 -8 -53 -20 -53 -25 0 -5 -5 -9 -12 -9 -13 0 -131
-89 -137 -103 -1 -4 -11 -16 -21 -25 -9 -9 -29 -35 -43 -58 -21 -34 -24 -47
-17 -82 4 -23 12 -47 17 -54 6 -7 13 -30 17 -51 6 -33 4 -38 -18 -49 -14 -6
-28 -18 -31 -27 -8 -27 -63 -53 -86 -41 -10 6 -19 16 -19 22 0 6 -3 9 -6 5 -6
-5 -8 -46 -5 -84 1 -18 28 -16 38 2 5 8 25 16 46 17 20 2 37 6 37 10 0 8 41
-2 57 -14 6 -5 25 -36 42 -69 28 -55 32 -89 10 -89 -5 0 -9 -7 -9 -15 0 -8 -4
-15 -8 -15 -4 0 -13 -24 -19 -52 -10 -47 -10 -55 7 -69 24 -21 40 -81 45 -175
3 -41 7 -78 9 -82 2 -4 7 -31 10 -60 3 -29 9 -64 12 -78 3 -13 2 -24 -3 -24
-5 0 -9 -10 -10 -22 -5 -70 -1 -258 7 -353 5 -60 12 -184 15 -275 3 -91 8
-194 11 -230 3 -36 7 -119 9 -184 2 -66 8 -122 12 -125 4 -3 8 -22 8 -41 0
-23 4 -34 13 -33 6 2 12 -2 12 -7 0 -6 -6 -10 -12 -10 -8 0 -13 -15 -13 -42
-1 -70 -23 -222 -36 -251 -8 -17 -18 -26 -26 -23 -8 3 -12 2 -9 -3 3 -5 -1
-12 -10 -15 -26 -10 -34 -7 -34 12 0 13 -2 14 -9 4 -6 -10 -10 -7 -15 12 -4
17 -13 26 -26 26 -22 0 -28 35 -7 43 9 3 9 9 0 24 -6 11 -8 26 -3 33 9 15 6
78 -9 170 -6 36 -11 151 -11 255 0 118 -5 214 -13 253 -8 37 -10 62 -4 62 6 0
5 5 -1 13 -13 15 -22 128 -27 332 -4 177 -14 247 -39 274 -15 16 -33 18 -151
18 -134 -1 -163 5 -207 41 -24 20 -36 8 -36 -39 -1 -23 -3 -44 -6 -47 -3 -3
-1 -11 4 -17 7 -9 7 -21 -1 -39 -9 -19 -9 -35 -2 -61 6 -20 7 -35 2 -35 -5 0
-9 7 -9 15 0 13 -3 13 -26 -1 -17 -12 -21 -19 -13 -24 8 -6 8 -10 -3 -16 -7
-5 -19 -21 -25 -36 -12 -27 -11 -28 17 -28 17 0 33 7 39 18 6 9 11 11 11 5 0
-7 7 -13 15 -13 8 0 15 -7 15 -16 0 -13 -7 -15 -35 -11 -19 3 -37 1 -40 -4 -4
-5 3 -48 15 -95 24 -95 25 -89 -30 -264 -21 -69 -41 -142 -45 -163 -4 -22 -13
-41 -23 -44 -9 -4 -23 -15 -30 -25 -7 -10 -22 -18 -33 -18 -10 0 -19 -4 -19
-10 0 -14 -20 -12 -54 5 -16 9 -35 14 -41 11 -14 -5 -39 13 -53 41 -7 12 -12
46 -12 75 0 29 -7 77 -14 105 -8 31 -10 55 -5 59 5 3 9 20 9 38 0 19 7 39 15
46 8 7 15 21 15 31 0 10 4 21 10 24 23 14 33 96 32 258 -1 92 -4 173 -8 179
-7 11 -10 51 -16 210 -2 49 -6 88 -10 88 -5 0 -9 -8 -9 -17 -1 -10 -3 -34 -5
-53 -3 -32 -4 -94 -2 -109 3 -25 -5 -41 -19 -41 -10 -1 -36 -19 -58 -40 -27
-27 -52 -41 -80 -46 -22 -3 -45 -10 -51 -15 -7 -6 -16 -4 -24 6 -7 8 -19 15
-26 15 -8 0 -14 6 -14 13 0 6 -8 0 -18 -15 -9 -16 -22 -28 -29 -28 -7 0 -13
-7 -13 -15 0 -9 -9 -15 -23 -15 -34 0 -68 -31 -52 -47 8 -7 11 -30 9 -57 -2
-37 1 -46 14 -47 14 0 14 -2 -2 -8 -17 -7 -18 -8 -3 -14 9 -3 15 -12 12 -19
-2 -7 -6 -46 -8 -85 -4 -62 -2 -73 12 -73 11 -1 8 -5 -9 -14 -14 -8 -28 -12
-32 -10 -12 7 -10 44 2 44 6 0 10 5 10 10 0 6 -6 10 -12 10 -9 0 -14 22 -16
68 -2 37 -5 87 -7 112 -5 59 -17 384 -17 483 -1 86 7 109 18 51 4 -22 12 -43
18 -47 7 -6 4 -7 -6 -3 -12 3 -18 0 -18 -9 0 -8 5 -15 10 -15 6 0 10 -8 10
-17 0 -10 6 -30 14 -44 7 -15 10 -32 6 -39 -12 -19 1 -83 19 -97 13 -10 17 -7
23 15 6 24 6 23 5 -7 -1 -22 3 -36 12 -39 12 -4 13 6 6 54 -4 33 -8 76 -9 97
-1 26 -5 36 -14 32 -10 -4 -10 0 0 18 7 12 13 50 15 84 1 34 6 71 12 82 13 23
6 44 -26 87 -13 17 -23 34 -23 39 0 4 -9 16 -20 25 -21 18 -20 18 12 51 51 51
114 97 176 128 32 16 87 43 124 61 59 29 68 37 74 67 4 21 2 39 -6 48 -10 13
-9 19 5 35 10 11 26 20 37 20 10 0 18 7 18 15 0 8 3 15 8 15 10 0 45 61 49 85
11 68 3 271 -12 295 -3 5 -7 37 -9 71 -3 49 -9 66 -25 78 -20 16 -20 17 -4 41
19 26 24 58 12 66 -5 2 -4 16 1 30 14 35 11 55 -3 24 l-11 -25 -4 32 c-4 36
-26 48 -63 34 -17 -6 -38 -4 -69 6 -35 12 -51 13 -84 3 -45 -13 -247 -110
-257 -123 -3 -5 -9 -8 -13 -8 -3 1 -28 -5 -54 -13 -26 -8 -41 -15 -34 -15 24
-2 46 -31 33 -44 -6 -6 -11 -8 -11 -3 0 4 -13 -2 -29 -13 -16 -12 -37 -21 -46
-21 -22 0 -127 -61 -196 -115 -30 -24 -83 -53 -117 -64 -69 -24 -163 -80 -204
-123 -16 -15 -28 -25 -28 -22 0 3 -13 -4 -29 -15 -16 -12 -33 -21 -39 -21 -20
0 -118 -45 -132 -60 -25 -28 -119 -90 -135 -90 -8 0 -15 -5 -15 -12 0 -6 -3
-9 -6 -5 -8 7 -64 -20 -64 -31 0 -4 -10 -12 -23 -19 -111 -57 -145 -78 -188
-117 -62 -56 -63 -75 0 -102 l48 -21 56 22 c31 13 77 26 104 30 26 3 53 11 60
17 7 6 13 7 13 2 0 -5 6 -2 13 7 12 16 296 159 315 159 5 0 28 18 53 40 42 38
47 40 107 39 53 -2 62 -5 62 -20 0 -11 4 -19 9 -19 5 0 9 -15 9 -32 0 -32 8
-102 18 -145 3 -15 9 -20 19 -17 22 9 18 -9 -6 -26 -12 -8 -27 -21 -35 -27 -7
-7 -15 -13 -19 -13 -3 0 -18 -11 -32 -24 -15 -14 -36 -27 -48 -30 -29 -7 -81
-32 -130 -61 -22 -14 -65 -37 -95 -51 -38 -19 -49 -28 -37 -31 9 -3 15 -9 12
-14 -8 -13 12 -11 34 3 16 9 24 7 50 -13 17 -13 48 -37 70 -54 50 -38 58 -59
66 -165 9 -117 16 -184 20 -188 10 -10 25 12 20 29 -4 11 -2 19 4 19 6 0 11 5
11 10 0 6 -8 10 -17 10 -17 1 -17 1 -1 10 14 8 16 23 13 83 -3 39 -8 92 -13
117 -11 60 6 90 86 152 54 41 67 47 95 41 17 -3 43 -13 55 -21 61 -40 102
-237 68 -332 -9 -25 -16 -55 -16 -67 0 -12 -4 -24 -9 -27 -9 -6 -4 -70 8 -95
10 -19 5 -100 -9 -159 -6 -23 -7 -55 -4 -70 9 -35 42 -72 66 -72 45 0 148 -88
148 -126 0 -13 5 -26 10 -29 13 -8 13 -142 0 -147 -16 -5 0 -98 16 -98 7 0 23
-20 34 -44 24 -53 25 -66 6 -66 -9 0 -13 -9 -12 -25 2 -15 -6 -32 -20 -46 -13
-13 -24 -27 -24 -33 0 -14 -83 -44 -143 -52 -44 -6 -47 -9 -72 -60 -15 -30
-30 -52 -35 -49 -5 3 -11 1 -15 -5 -5 -9 24 -15 49 -11 5 1 18 -7 30 -18 29
-27 62 -30 79 -7 20 27 98 34 121 10 26 -25 15 -130 -19 -185 -14 -21 -25 -47
-25 -58 0 -20 -24 -50 -41 -52 -5 -1 -12 -2 -16 -3 -40 -11 -130 -17 -160 -11
-35 6 -37 8 -18 21 18 13 17 14 -9 14 l-27 0 21 30 c13 18 18 35 13 42 -4 7
-9 50 -10 95 -2 67 -7 87 -23 103 -11 11 -20 26 -20 33 0 7 -14 12 -33 13 -35
0 -107 41 -107 61 0 6 -8 14 -17 16 -16 4 -16 5 -1 6 13 1 15 7 9 29 -5 20
-15 28 -35 30 -26 3 -27 4 -9 17 15 12 16 14 2 15 -12 0 -16 12 -18 51 -1 29
-4 55 -6 60 -3 4 2 15 11 23 8 9 11 16 5 16 -6 0 -11 13 -11 30 0 22 4 28 15
23 13 -4 15 0 9 23 -3 16 -7 58 -8 94 0 40 -5 63 -11 60 -13 -6 -23 83 -11 92
6 4 5 12 -3 21 -6 8 -11 35 -10 59 3 76 -13 207 -28 219 -9 8 -24 9 -45 3 -52
-15 -154 5 -187 35 -23 22 -27 33 -23 66 6 59 6 121 2 210 -4 72 -2 86 23 139
50 105 31 208 -28 150 -9 -9 -19 -14 -22 -10 -3 3 -11 1 -18 -4 -6 -5 -20 -11
-31 -13 -10 -2 -35 -10 -54 -19 -32 -14 -36 -19 -37 -57 -2 -40 0 -43 41 -63
41 -20 45 -25 56 -80 9 -42 10 -75 3 -120 -7 -41 -7 -74 0 -98 5 -19 10 -80
11 -135 2 -55 8 -147 14 -205 25 -223 28 -277 20 -345 -4 -38 -8 -78 -9 -87 0
-10 -7 -18 -14 -18 -9 0 -12 -7 -9 -17 4 -14 2 -13 -7 2 -6 11 -13 22 -15 24
-2 2 -16 -10 -32 -27 -19 -20 -26 -36 -22 -48 10 -28 -2 -60 -32 -83 -28 -23
-52 -20 -64 7 -11 25 -14 82 -5 82 5 0 15 14 24 31 14 29 13 34 -14 87 -15 32
-30 80 -33 107 -10 103 -18 134 -33 128 -8 -3 -12 -12 -9 -19 4 -10 -3 -14
-25 -14 -34 0 -72 -37 -101 -99 -14 -31 -21 -35 -55 -36 -27 -1 -53 9 -90 32
-45 28 -54 39 -64 76 -11 46 -53 101 -72 94 -6 -2 -16 -23 -22 -47 -9 -38 -16
-46 -44 -54 -23 -7 -39 -6 -52 3 -11 6 -24 9 -29 6 -11 -7 -25 19 -34 65 -4
19 -9 118 -12 219 -4 154 -2 192 12 235 9 28 19 55 22 60 5 9 7 28 16 128 5
67 16 121 25 128 4 3 20 22 35 42 18 24 33 35 43 31 11 -4 14 0 11 18 -2 16
-11 25 -26 27 -12 2 -28 12 -35 23 -6 10 -16 19 -22 19 -6 0 -17 20 -24 45 -7
25 -19 45 -27 45 -21 0 -17 21 6 27 30 8 24 36 -11 56 -38 21 -79 23 -79 2 0
-8 -4 -15 -9 -15 -5 0 -12 -7 -15 -16 -9 -22 23 -57 46 -51 10 3 21 1 24 -4 3
-5 15 -10 27 -10 12 -1 4 -5 -18 -8 -22 -3 -41 -3 -43 2 -6 12 -22 8 -22 -6 0
-29 -27 -68 -57 -82 -35 -17 -41 -38 -20 -70 56 -87 45 -238 -23 -295 -9 -8
-20 -26 -23 -39 -7 -27 9 -124 26 -158 6 -13 8 -26 5 -29 -4 -3 -2 -20 3 -37
21 -75 -25 -147 -101 -158 -23 -3 -43 -2 -46 2 -9 15 -54 -16 -54 -38 0 -13
-8 -24 -20 -28 -30 -10 -24 -25 10 -25 24 0 30 -4 30 -21 0 -41 -18 -59 -60
-59 -42 0 -62 15 -30 23 35 9 22 26 -17 22 l-38 -5 33 12 c32 11 44 28 19 28
-7 0 -18 9 -25 20 -10 17 -9 25 4 45 14 21 24 25 65 25 40 0 49 3 49 18 -1 19
-24 54 -32 47 -2 -2 -5 31 -7 75 -1 55 2 80 10 80 6 0 9 7 6 15 -4 8 -2 17 4
20 5 4 7 11 3 16 -3 5 -10 7 -15 4 -5 -4 -9 -1 -9 4 0 6 -9 11 -19 11 -11 0
-21 6 -24 13 -3 9 -7 9 -19 -1 -11 -9 -18 -10 -23 -2 -10 17 -25 11 -25 -9 0
-11 -5 -23 -10 -26 -6 -4 -17 -22 -25 -42 -17 -41 -18 -46 -7 -39 10 6 37 -63
28 -71 -3 -3 -12 0 -20 7 -9 6 -31 12 -51 13 -19 1 -35 5 -35 9 0 4 -17 11
-39 14 -49 8 -62 16 -64 42 -1 12 -5 22 -9 22 -9 0 -8 6 -14 -119 -2 -52 -5
-96 -7 -98 -7 -6 -48 -15 -107 -23 -30 -4 -68 -12 -84 -19 -23 -9 -31 -9 -37
0 -5 9 -14 9 -36 1 -15 -6 -40 -13 -55 -16 l-28 -6 0 105 c0 58 6 163 14 233
8 70 20 177 26 237 6 61 15 137 20 170 5 33 11 103 14 157 l5 96 -25 -25 c-19
-19 -28 -23 -37 -14 -8 8 -5 15 11 27 13 9 34 41 47 71 21 46 26 82 36 226 6
95 10 192 9 217 -1 25 -2 59 -3 75 0 17 12 90 28 163 27 128 29 132 54 132 26
1 61 20 61 35 0 4 -6 2 -14 -4 -8 -6 -30 -14 -50 -16 -28 -4 -34 -2 -30 10 5
11 2 13 -10 9 -9 -3 -17 -10 -17 -15 -1 -5 -2 -15 -3 -21 -1 -17 -88 -21 -98
-5 -13 20 -9 25 28 31 36 7 74 33 74 50 0 5 10 20 22 33 l22 24 -22 6 c-12 3
-19 9 -17 14 3 4 13 6 23 3 16 -5 16 -5 0 6 -20 13 -22 19 -8 40 7 11 12 12
18 3 4 -6 14 -13 22 -15 8 -2 25 -16 37 -32 17 -22 20 -32 11 -38 -10 -6 -10
-10 0 -20 10 -10 21 -3 57 32 24 24 42 47 39 51 -6 11 45 69 62 69 8 0 14 -4
14 -10 0 -6 29 -10 66 -10 57 0 67 3 71 20 3 11 13 20 22 20 19 0 51 48 51 77
0 10 11 45 25 77 13 33 22 62 20 65 -3 2 -12 -13 -20 -33 -9 -20 -20 -34 -25
-31 -6 3 -10 -4 -11 -17 0 -20 -1 -21 -8 -5 -6 17 -8 17 -20 3 -22 -26 -41
-19 -41 15 0 16 3 28 8 26 4 -3 8 8 9 24 3 34 -5 36 -35 9 -31 -29 -81 -3 -82
43 0 23 -9 22 -45 -8z m2620 -725 c17 -7 24 -7 20 0 -3 6 -2 10 4 10 6 0 25
-19 43 -43 19 -25 40 -42 48 -40 8 2 5 -2 -7 -8 -13 -7 -23 -17 -23 -23 0 -6
-14 -19 -31 -28 -27 -16 -33 -16 -57 -3 -59 32 -65 40 -57 87 11 64 13 66 60
48z m-4227 -383 c11 -8 11 -12 0 -18 -10 -7 -9 -9 4 -9 9 0 20 5 23 10 13 21
24 9 19 -20 -5 -22 -2 -31 10 -36 10 -4 15 -12 13 -18 -3 -7 -2 -31 3 -53 6
-35 5 -40 -8 -35 -11 4 -13 2 -7 -9 5 -8 -1 -5 -13 5 -19 17 -22 17 -22 3 0
-10 -6 -17 -14 -17 -13 0 -34 83 -39 157 -1 17 -5 29 -9 26 -10 -5 -11 21 -2
30 7 7 19 2 42 -16z m5003 -1272 c10 -16 18 -47 18 -67 1 -23 6 -38 14 -38 11
0 -61 -49 -74 -50 -13 0 -59 81 -59 104 0 30 47 88 68 84 8 -2 23 -16 33 -33z
m-3759 -65 c40 0 99 -23 94 -36 -3 -8 1 -20 9 -28 18 -17 20 -36 4 -36 -6 0
-9 -6 -6 -12 6 -18 -22 -90 -41 -105 -22 -18 -45 -16 -38 2 9 24 -9 17 -23 -8
-18 -33 3 -77 77 -169 59 -71 91 -128 72 -128 -5 0 -11 9 -15 20 -3 10 -20 31
-37 45 -30 26 -31 26 -45 5 -8 -11 -11 -26 -7 -33 8 -12 -36 21 -47 37 -4 5
-16 6 -28 3 -14 -3 -21 0 -21 8 0 7 -5 15 -12 17 -24 8 -20 227 8 416 6 41 7
42 21 23 8 -12 23 -21 35 -21z m3212 -7 c-6 -22 -4 -25 10 -20 13 5 16 0 16
-29 0 -27 -4 -35 -14 -31 -21 8 -28 -22 -10 -41 16 -15 15 -17 -1 -27 -38 -21
-54 -43 -48 -66 5 -17 3 -20 -7 -14 -10 6 -12 1 -7 -23 4 -17 2 -34 -3 -37 -4
-3 -8 -35 -8 -72 0 -41 -4 -69 -11 -71 -6 -2 -11 -12 -11 -23 0 -26 -10 -24
-48 11 -18 17 -36 30 -40 29 -4 0 -18 -14 -31 -30 -21 -27 -22 -30 -5 -27 12
2 22 -5 29 -19 11 -25 26 -28 56 -13 25 14 49 -8 49 -45 0 -14 7 -28 15 -31
12 -5 13 -10 4 -20 -6 -7 -8 -21 -5 -32 10 -31 -15 -53 -60 -54 -54 0 -113 28
-125 61 -6 14 -15 28 -20 32 -7 4 -4 12 6 22 9 9 13 22 9 28 -3 6 -1 15 5 19
8 4 12 34 12 79 0 55 3 71 14 71 8 0 15 7 15 16 0 11 -6 13 -19 9 -26 -8 -39
15 -15 28 18 10 17 11 -6 17 -24 6 -25 9 -22 62 2 34 -1 58 -8 63 -8 5 -8 10
1 21 17 21 -5 42 -39 37 -21 -4 -24 -2 -12 6 12 8 12 11 1 11 -9 0 -11 8 -7
25 4 14 2 25 -4 25 -16 0 -12 30 5 36 8 4 15 12 15 20 0 8 7 14 16 14 11 0 14
-6 8 -22 -8 -25 -8 -29 -6 -70 2 -21 6 -25 22 -21 24 6 25 22 5 49 -20 26 -19
40 2 23 13 -11 17 -11 20 -1 8 22 23 12 23 -15 0 -40 11 -74 21 -67 5 3 9 0 9
-5 0 -22 37 -10 60 19 14 16 35 29 48 30 14 0 21 4 16 11 -9 15 16 30 39 23
10 -3 17 0 18 8 1 7 2 18 4 23 1 6 3 13 3 18 1 4 7 7 12 7 6 0 8 -11 4 -27z
m-1164 -399 c0 -8 10 -14 25 -14 15 0 28 -7 32 -17 4 -10 11 -21 17 -25 8 -5
7 -14 -2 -28 -7 -11 -10 -25 -8 -29 3 -5 -8 -11 -24 -15 -39 -7 -90 21 -109
60 -8 16 -19 32 -25 36 -7 5 -6 13 6 24 14 14 20 15 32 5 17 -15 36 -7 36 15
0 8 5 12 10 9 6 -3 10 -13 10 -21z m1678 -51 c29 -27 59 -128 66 -223 15 -184
17 -203 23 -214 11 -18 12 -106 1 -106 -6 0 -5 -7 3 -16 8 -10 14 -54 16 -126
1 -60 5 -114 8 -119 9 -13 -14 -49 -30 -49 -8 0 -12 -6 -9 -13 3 -8 -4 -24
-14 -37 -19 -23 -20 -23 -46 -7 -14 10 -26 22 -26 28 0 6 -4 7 -10 4 -5 -3
-12 7 -15 22 -4 15 -11 39 -17 53 -19 45 -28 94 -34 190 -7 103 -39 202 -68
206 -25 4 -46 30 -46 59 0 15 -7 54 -16 88 -8 33 -13 69 -10 80 3 13 0 17 -10
13 -8 -3 -14 -1 -14 4 0 6 -7 10 -15 10 -10 0 -15 10 -15 33 0 32 1 33 39 30
33 -1 42 3 62 29 61 80 132 104 177 61z m-2998 -143 l29 -20 -19 -66 c-11 -36
-16 -73 -13 -82 4 -11 -2 -8 -17 8 -12 14 -26 24 -31 23 -5 -2 -9 2 -9 7 0 6
-4 10 -10 10 -5 0 -10 -9 -10 -20 0 -11 -4 -20 -10 -20 -5 0 -10 9 -10 19 0
11 -4 23 -10 26 -5 3 -10 1 -10 -5 0 -6 -5 -8 -10 -5 -13 8 -6 76 11 102 10
17 49 36 82 42 5 0 22 -8 37 -19z m253 -201 c11 -12 15 -27 12 -41 -5 -20 -10
-54 -14 -95 0 -7 -14 -19 -31 -28 -27 -14 -30 -14 -50 7 -17 18 -20 19 -20 5
0 -9 -4 -17 -10 -17 -5 0 -10 6 -10 14 0 15 -31 28 -72 30 -17 1 -28 -3 -28
-11 0 -7 -4 -13 -10 -13 -5 0 -10 -5 -10 -11 0 -6 6 -9 14 -6 17 7 40 -18 31
-33 -4 -6 -3 -9 2 -8 5 2 24 -9 42 -24 29 -25 30 -28 11 -28 -11 0 -23 7 -26
15 -9 22 -19 18 -33 -11 -15 -33 -5 -47 26 -40 13 4 28 4 33 1 15 -9 -1 -35
-21 -35 -10 0 -19 -7 -19 -15 0 -8 8 -15 19 -15 14 0 20 -10 25 -40 6 -40 15
-46 56 -40 8 1 25 11 36 22 23 21 45 8 26 -15 -13 -17 -22 -107 -10 -107 5 0
6 -5 3 -10 -4 -6 -18 -9 -33 -8 -18 2 -27 -2 -28 -12 0 -8 -2 -28 -3 -45 -1
-26 -3 -28 -14 -14 -8 10 -26 15 -50 15 -21 -1 -41 2 -43 6 -3 4 -18 8 -34 8
-33 0 -43 19 -42 82 1 26 -6 44 -19 57 -21 19 -31 59 -33 126 -1 22 -4 45 -9
52 -4 7 -1 15 7 20 17 9 24 52 12 71 -11 19 3 30 15 12 9 -12 10 -11 5 4 -4
11 -1 23 6 27 7 4 9 11 5 16 -5 4 -12 1 -17 -7 -5 -8 -12 -11 -17 -7 -4 5 -2
12 5 16 13 8 19 80 10 116 -3 11 -3 14 -1 8 3 -10 9 -9 21 3 20 20 30 1 12
-21 -7 -8 -9 -15 -5 -15 4 0 14 8 21 18 12 16 13 16 19 0 4 -10 13 -18 21 -18
12 0 12 -4 2 -20 -11 -16 -9 -22 7 -34 24 -19 41 -15 37 8 -3 18 33 58 62 69
9 4 16 10 15 14 -3 17 2 19 39 20 24 1 43 -5 55 -18z m627 -145 c-10 -11 -9
-18 4 -33 13 -15 14 -20 4 -24 -7 -3 -4 -5 8 -4 16 1 19 6 16 24 -4 20 0 23
28 23 27 0 30 -3 25 -20 -5 -14 -2 -20 9 -20 10 0 16 9 16 23 1 20 2 21 14 5
16 -22 20 -22 41 -2 9 9 19 13 23 9 4 -4 -3 -15 -16 -26 -24 -19 -21 -45 3
-35 8 3 15 0 17 -5 2 -5 13 -1 25 11 26 24 41 27 23 5 -9 -11 -10 -19 -3 -26
7 -7 17 -2 32 17 16 21 24 25 30 16 4 -7 14 -12 22 -10 11 2 13 -9 12 -50 -2
-43 0 -53 12 -48 16 6 9 -21 -11 -41 -13 -14 -47 -7 -39 8 3 4 12 6 20 2 9 -3
15 1 15 10 0 8 -7 18 -16 21 -14 6 -15 9 -2 29 15 22 14 47 -2 47 -5 0 -12
-22 -16 -50 -5 -40 -10 -50 -25 -50 -11 0 -19 -3 -19 -8 0 -4 -10 -12 -22 -17
-13 -6 -24 -19 -26 -30 -7 -35 -18 -36 -14 -2 2 21 11 36 25 42 23 11 35 35
16 35 -6 0 -17 -8 -24 -17 -9 -12 -27 -18 -54 -18 -23 0 -41 -3 -41 -8 0 -4
-5 -5 -11 -2 -7 5 -3 15 10 29 24 26 27 42 7 49 -14 6 -42 -22 -56 -56 -5 -12
-9 -16 -9 -9 -1 8 -19 12 -56 12 -42 0 -55 4 -55 15 0 8 6 12 14 9 8 -3 17 0
21 6 4 6 -6 15 -24 21 -26 9 -31 16 -31 45 0 33 -14 47 -22 22 -3 -7 -7 -6
-11 5 -3 9 -2 17 3 17 6 0 10 11 10 25 0 14 -4 25 -9 25 -5 0 -11 7 -15 15 -4
10 1 15 14 15 11 0 20 -5 20 -11 0 -6 9 -22 19 -35 19 -24 20 -24 26 -4 3 11
12 20 20 20 7 0 16 10 20 23 4 14 8 17 12 9 3 -7 -1 -19 -7 -28z m-706 -1569
c16 -12 22 -12 42 2 13 8 25 13 25 9 1 -3 2 -12 3 -18 1 -7 9 -12 19 -12 10 1
17 -5 17 -17 0 -22 -4 -23 -30 -9 -20 11 -60 -5 -60 -23 0 -4 5 -5 10 -2 16
10 50 -5 50 -21 0 -8 -4 -14 -10 -14 -5 0 -10 5 -10 10 0 6 -6 10 -13 10 -7 0
-18 -18 -24 -40 -8 -32 -8 -40 3 -40 8 0 14 7 14 16 0 13 3 14 15 4 13 -11 13
-14 0 -27 -8 -8 -15 -21 -15 -29 0 -8 -9 -14 -20 -14 -11 0 -20 -4 -20 -10 0
-16 -36 -12 -50 5 -16 20 -5 32 14 16 11 -10 19 -9 35 1 12 7 21 17 21 22 0 6
-5 5 -12 -2 -17 -17 -36 -15 -56 4 -15 15 -13 16 19 10 19 -3 28 -3 22 0 -7 3
-13 17 -13 31 0 20 4 23 20 18 16 -5 20 -2 20 16 0 18 -2 20 -16 8 -14 -11
-15 -7 -12 36 2 32 -1 49 -9 52 -9 3 -13 -8 -13 -36 0 -23 -4 -41 -10 -41 -14
0 -12 74 2 88 15 15 19 15 42 -3z m-54 -628 c32 -1 63 -57 54 -101 -7 -38 9
-76 31 -76 8 0 15 -4 15 -10 0 -13 -17 -13 -26 1 -3 6 -17 8 -30 5 -27 -7 -32
0 -38 54 -2 19 -4 39 -5 43 0 4 -7 2 -15 -5 -10 -9 -11 -17 -4 -25 8 -10 6
-13 -5 -13 -9 0 -19 5 -22 10 -3 6 -15 10 -26 10 -10 0 -19 5 -19 10 0 6 -7
10 -15 10 -17 0 -21 55 -5 65 6 3 10 1 10 -6 0 -7 3 -9 7 -6 3 4 12 2 20 -4 9
-8 17 -8 26 0 10 8 17 7 25 -1 9 -9 12 -8 12 5 0 11 -8 17 -25 17 -24 0 -32
10 -18 24 4 3 14 4 22 0 9 -3 23 -7 31 -7z"/>
<path d="M4230 6623 c-36 -18 -60 -37 -60 -48 0 -13 -30 -36 -39 -30 -5 3 -12
-4 -16 -15 -7 -22 -20 -26 -30 -10 -3 6 -10 10 -16 10 -18 0 -8 -21 27 -57 27
-27 33 -38 23 -44 -8 -4 -18 -4 -23 1 -14 14 -26 12 -26 -5 0 -17 22 -30 67
-40 27 -5 32 -4 27 8 -5 13 0 14 33 5 21 -5 47 -11 57 -12 34 -4 29 -24 -6
-28 l-33 -3 33 -18 c32 -17 35 -17 53 -1 10 9 21 25 24 35 9 28 71 54 99 41
23 -10 73 -6 91 8 15 12 58 16 73 7 6 -5 28 -3 46 4 24 9 39 9 48 2 25 -20 89
-13 140 14 56 31 56 39 0 24 -28 -8 -48 -8 -67 -1 -20 8 -47 6 -104 -6 -132
-27 -231 -31 -244 -9 -6 12 -11 11 -35 -1 -15 -7 -37 -14 -49 -14 -13 0 -23
-5 -23 -11 0 -7 11 -9 30 -5 44 8 36 -10 -9 -22 -32 -8 -38 -7 -34 4 3 8 -1
14 -11 14 -10 0 -16 9 -16 25 0 18 5 25 19 25 11 0 23 -4 26 -10 11 -17 43
-11 50 10 3 11 13 20 21 20 8 0 14 7 14 15 0 8 6 15 13 15 15 0 17 47 2 58 -5
4 -15 16 -21 26 -17 31 -36 33 -29 3 5 -20 2 -27 -14 -32 -12 -3 -21 -13 -21
-21 0 -21 -17 -17 -35 9 -12 17 -17 19 -24 9 -6 -11 -10 -10 -15 4 -8 20 8 42
18 25 4 -6 15 -11 24 -11 15 1 14 3 -3 16 -11 8 -19 20 -17 25 3 12 3 12 -38
-8z"/>
<path d="M4607 6398 c2 -5 -5 -8 -16 -8 -12 0 -21 -4 -21 -10 0 -5 9 -10 19
-10 34 0 51 -12 51 -35 0 -14 -7 -25 -17 -28 -11 -3 -6 -5 12 -7 26 -1 27 -3
10 -10 -22 -9 -22 -9 14 -16 13 -2 30 -12 38 -22 13 -15 14 -14 8 13 -3 17 -7
37 -8 45 -1 8 -6 19 -12 23 -5 4 8 6 30 5 32 -2 39 -7 37 -21 -2 -14 2 -16 21
-12 14 4 28 2 31 -4 4 -6 15 -11 25 -11 10 0 26 -9 36 -20 10 -11 22 -17 27
-14 5 4 17 -4 26 -17 l16 -23 6 24 c4 19 13 26 39 28 21 2 31 0 27 -7 -5 -7 3
-9 24 -5 24 5 30 3 30 -11 0 -9 3 -15 8 -13 4 3 22 10 40 17 39 16 42 30 5 30
-97 -1 -282 35 -296 58 -4 7 -19 13 -33 13 -14 0 -35 7 -48 15 -32 21 -67 27
-83 14 -9 -8 -13 -8 -13 0 0 6 10 16 23 20 18 7 14 9 -20 8 -22 -1 -39 -5 -36
-9z"/>
<path d="M9756 5831 c-4 -6 -16 -11 -26 -11 -46 0 -151 -83 -199 -159 -26 -40
-29 -51 -21 -84 4 -21 12 -43 17 -50 5 -7 10 -23 11 -37 1 -14 4 -35 7 -47 3
-12 1 -25 -5 -28 -5 -3 -10 2 -11 12 0 14 -2 14 -9 -5 -12 -28 -3 -52 16 -45
8 3 14 -1 14 -8 0 -8 16 -30 36 -49 49 -47 60 -77 37 -102 -10 -11 -17 -23
-17 -27 1 -3 -2 -16 -7 -29 -13 -35 0 -104 22 -109 9 -3 20 -17 24 -31 7 -27
7 -26 30 18 12 25 32 63 44 85 11 21 21 44 21 51 0 6 9 19 21 30 14 12 18 25
14 41 -10 41 -6 199 5 238 2 6 0 36 -4 67 -11 78 1 161 22 153 8 -3 18 -1 22
5 3 5 34 13 68 16 35 4 65 10 67 15 9 14 -7 39 -25 39 -10 0 -20 5 -22 11 -5
14 -106 42 -120 33 -6 -4 -14 -1 -18 6 -5 9 -9 9 -14 1z"/>
<path d="M350 5620 c-30 -4 -71 -15 -90 -25 -34 -17 -79 -62 -80 -78 0 -17
-77 -90 -110 -106 l-35 -16 4 -70 c3 -71 15 -110 31 -100 4 3 13 -9 19 -25 15
-45 28 -36 36 23 11 92 16 107 43 125 32 21 93 22 108 2 6 -8 15 -39 19 -67 8
-59 25 -72 25 -19 0 51 33 86 80 86 43 0 67 -18 76 -58 11 -53 15 -59 26 -37
14 32 60 47 128 42 87 -6 100 -2 100 39 0 75 -111 206 -215 254 -75 34 -97 38
-165 30z"/>
<path d="M975 5304 c-27 -15 -62 -33 -76 -40 -33 -18 -43 -53 -29 -104 15 -57
18 -56 158 29 61 38 72 49 72 72 0 20 -9 33 -34 48 -18 12 -35 21 -37 21 -2 0
-26 -12 -54 -26z"/>
<path d="M7673 5032 c-39 -4 -51 -18 -59 -68 -7 -49 -7 -43 10 -143 8 -46 14
-87 14 -90 -1 -3 2 -17 6 -31 22 -79 27 -238 8 -269 -20 -33 -8 -107 19 -114
11 -3 23 -7 27 -9 4 -1 6 76 4 172 -4 233 12 467 33 489 8 10 15 22 15 27 -1
18 -46 39 -77 36z"/>
<path d="M1440 4883 c-14 -2 -37 -16 -51 -29 l-26 -25 -9 -252 c-10 -294 -14
-815 -7 -870 3 -21 11 -41 19 -44 17 -6 74 18 74 32 0 7 20 10 51 9 38 -2 56
-8 73 -26 12 -13 34 -32 49 -43 16 -12 28 -33 32 -55 6 -35 -5 -53 -58 -96
-39 -33 -172 -20 -217 21 -16 15 -18 14 -28 -12 -17 -41 -32 -110 -38 -173 -3
-30 -11 -59 -18 -65 -13 -12 -14 -40 -2 -73 5 -15 3 -28 -4 -37 -10 -12 -10
-15 1 -15 9 0 10 -3 2 -11 -20 -20 -67 -6 -74 21 -7 24 -7 24 -9 -5 l-2 -30
-10 28 c-13 37 -25 34 -33 -10 -13 -74 -48 -100 -94 -71 -15 9 -24 8 -45 -5
-29 -19 -40 -22 -31 -7 3 6 0 13 -8 16 -19 7 -19 61 0 91 12 18 13 27 5 35 -9
9 -8 16 4 29 22 24 11 49 -21 49 -14 0 -28 6 -31 14 -3 8 -20 20 -37 26 -26 9
-34 8 -44 -6 -6 -9 -16 -13 -21 -10 -6 3 -13 -5 -16 -19 -4 -14 -10 -24 -14
-23 -4 1 -25 -4 -47 -10 -50 -15 -118 -15 -132 -1 -5 5 -29 10 -52 11 -25 0
-41 5 -41 13 0 6 -9 20 -20 30 -38 34 -1 125 50 125 10 0 31 7 46 15 16 8 37
15 46 15 9 0 29 5 45 11 39 15 12 29 -36 18 -54 -13 -113 -10 -141 6 -33 19
-90 19 -116 0 -19 -13 -35 -78 -38 -155 -1 -8 -5 -21 -10 -28 -4 -7 -10 -41
-13 -75 -2 -34 -7 -69 -10 -77 -3 -8 -7 -42 -8 -75 -2 -58 -12 -133 -21 -166
-3 -9 -14 -19 -24 -22 -11 -3 -20 -12 -20 -20 0 -24 -28 -28 -127 -21 -90 7
-93 8 -113 38 l-20 31 0 -100 0 -101 123 -3 c276 -7 323 -9 347 -19 14 -5 28
-10 33 -11 4 0 10 -2 15 -2 4 -1 12 -2 17 -4 6 -1 19 -3 30 -4 17 -1 18 -3 5
-12 -11 -7 -1 -9 37 -7 49 3 53 1 64 -23 7 -19 16 -25 30 -22 10 3 19 10 19
16 0 6 8 4 17 -6 15 -14 15 -20 3 -42 -10 -18 -16 -22 -22 -13 -11 19 -10 0 2
-23 13 -24 27 -24 33 -1 4 15 6 14 12 -5 7 -23 45 -28 45 -6 0 18 25 16 40 -2
10 -12 16 -13 26 -4 16 13 90 5 111 -13 7 -6 26 -8 41 -5 21 4 32 1 42 -14 16
-21 35 -26 27 -7 -3 9 7 13 31 14 32 1 34 0 14 -9 -35 -16 -26 -32 19 -32 32
0 39 3 36 15 -3 13 2 15 25 12 34 -5 48 -22 18 -22 -12 0 -18 -4 -15 -10 9
-15 44 -12 61 5 9 8 20 15 25 15 12 0 12 -27 -1 -35 -17 -10 -11 -25 10 -25
15 0 20 -7 20 -25 0 -29 -15 -33 -23 -6 -3 14 -11 18 -33 14 -16 -3 -34 -10
-41 -15 -11 -9 -50 -11 -108 -6 -23 2 -32 -2 -40 -19 -10 -23 -35 -32 -35 -13
0 6 -5 10 -10 10 -6 0 -10 -7 -8 -16 5 -31 -20 -25 -31 6 -10 31 -36 37 -36 9
0 -8 -7 -17 -15 -22 -9 -4 -3 -5 13 -2 15 3 27 3 27 -1 0 -8 -32 -39 -42 -39
-4 0 -7 -4 -6 -10 5 -33 11 -43 24 -38 8 3 14 -1 14 -11 0 -23 -27 -20 -35 4
-7 23 -21 26 -28 8 -3 -9 -8 -10 -18 -3 -8 6 -36 12 -64 13 -43 3 -48 1 -32
-10 17 -13 17 -14 -1 -29 -20 -17 -17 -24 -25 81 -2 32 -12 49 -29 50 -6 0 -6
-8 8 -113 5 -40 3 -57 -5 -57 -6 0 -11 11 -11 25 0 14 -5 25 -10 25 -17 0 -23
-29 -10 -45 11 -13 10 -14 -4 -9 -16 6 -21 30 -10 58 3 9 10 14 14 11 5 -3 11
-1 15 5 3 5 -1 10 -9 10 -9 0 -16 5 -16 11 0 6 -6 9 -12 6 -7 -2 -12 -13 -11
-23 1 -10 0 -13 -3 -6 -7 14 -34 17 -34 3 0 -6 4 -12 9 -15 10 -6 21 -66 12
-66 -12 0 -28 15 -34 30 -4 12 -6 11 -6 -2 -1 -12 -9 -18 -23 -18 -30 0 -80
-44 -76 -66 2 -12 -4 -19 -17 -21 -11 -1 -14 0 -7 3 13 6 17 34 4 34 -4 0 -13
-5 -19 -11 -8 -8 -13 -8 -18 0 -3 6 0 13 7 16 9 4 15 25 16 56 1 31 -2 48 -8
44 -5 -3 -10 -19 -10 -34 0 -25 -3 -27 -33 -23 -30 4 -31 4 -16 -14 8 -11 21
-32 28 -48 10 -24 10 -31 -1 -37 -8 -5 -15 -4 -17 3 -13 37 -61 64 -61 33 0
-8 -4 -15 -10 -15 -5 0 -10 14 -10 30 0 17 -4 30 -10 30 -5 0 -10 -16 -10 -35
0 -19 -5 -35 -11 -35 -5 0 -8 4 -5 8 2 4 1 14 -5 22 -7 12 -9 9 -9 -9 0 -23
-1 -23 -19 -7 -22 20 -41 14 -41 -11 0 -11 -7 -8 -24 12 -17 19 -26 24 -31 15
-4 -7 -2 -16 6 -21 11 -6 11 -11 1 -21 -9 -9 -12 -9 -12 5 0 30 -30 19 -31
-10 -1 -17 -3 -21 -6 -10 -4 17 -34 16 -73 -3 -8 -4 -24 -4 -35 1 -11 4 -28 8
-37 8 -17 1 -18 -54 -18 -1024 l0 -1025 1469 0 1469 1 12 29 c7 17 19 30 26
30 8 0 14 5 14 11 0 5 4 8 9 4 15 -9 31 30 35 85 2 28 7 54 11 58 4 4 5 -3 2
-16 -8 -34 7 -26 26 14 12 24 15 47 11 70 -4 22 -2 34 5 34 6 0 11 -11 11 -25
0 -14 3 -25 6 -25 17 0 47 26 77 65 19 24 37 42 40 39 10 -10 42 20 42 39 0
10 -8 23 -18 28 -9 6 -17 17 -17 25 0 12 -3 12 -20 2 -12 -8 -20 -24 -20 -40
0 -16 -4 -28 -8 -28 -5 0 -9 37 -9 82 0 46 2 75 4 65 6 -21 12 -21 35 0 19 17
20 16 38 -7 18 -24 18 -40 -1 -40 -5 0 -9 7 -9 15 0 8 -9 15 -20 15 -11 0 -20
-7 -20 -15 0 -8 -4 -15 -10 -15 -5 0 -10 -4 -10 -10 0 -5 7 -10 15 -10 8 0 15
5 15 10 0 14 27 13 32 -1 3 -9 10 -9 26 0 12 7 22 8 22 2 0 -5 -4 -11 -9 -13
-4 -1 -5 -12 0 -23 7 -20 8 -20 8 1 1 12 12 26 27 33 17 7 24 17 20 26 -9 24
15 65 41 71 23 6 34 44 13 44 -5 0 -10 -6 -10 -14 0 -16 -34 -31 -50 -21 -5 3
-10 13 -10 21 0 17 -31 19 -48 2 -9 -9 -12 -9 -12 -1 0 18 36 25 75 14 19 -5
35 -5 35 -1 0 13 -65 23 -94 16 -27 -7 -35 9 -28 51 5 27 20 31 18 6 0 -12 7
-19 22 -21 16 -3 22 2 22 16 0 11 3 27 6 35 7 20 -45 29 -63 11 -8 -8 -19 -14
-24 -14 -6 0 -7 -4 -4 -10 3 -5 7 -28 8 -50 3 -40 -3 -46 -40 -41 -7 1 -19
-11 -27 -27 -8 -16 -21 -32 -28 -34 -18 -7 -38 1 -38 15 1 16 66 57 91 57 12
0 19 7 18 18 0 10 -3 12 -6 5 -7 -18 -34 -16 -48 3 -10 14 -14 15 -33 3 -19
-12 -26 -11 -49 3 -38 23 -40 38 -6 38 20 0 24 3 14 9 -11 7 -11 10 1 17 8 5
20 18 26 29 10 18 11 17 12 -13 0 -20 4 -31 10 -27 5 3 10 21 10 40 0 18 6 35
13 38 6 2 9 8 5 12 -4 4 -14 2 -23 -5 -13 -10 -15 -9 -15 8 0 12 6 19 16 18 9
0 19 5 21 12 5 13 -23 13 -57 -1 -8 -3 -33 -8 -54 -12 -29 -5 -36 -9 -25 -16
8 -5 26 -9 42 -9 33 0 33 -2 4 -34 -22 -24 -25 -24 -46 -9 -17 11 -26 12 -34
4 -8 -8 -6 -11 9 -11 20 0 44 -17 44 -32 0 -4 -7 -8 -15 -8 -8 0 -15 -5 -15
-11 0 -7 -12 -10 -30 -7 -34 5 -36 0 -15 -28 21 -27 18 -44 -7 -44 -17 0 -19
3 -10 12 7 7 12 16 12 20 0 10 -34 11 -44 1 -10 -10 -46 -11 -40 -1 3 4 14 8
25 8 12 0 19 7 19 20 0 24 -13 26 -34 5 -8 -8 -23 -15 -33 -15 -16 1 -16 2 -2
13 12 9 14 18 8 35 -6 15 -2 43 11 85 11 34 20 63 20 64 0 2 -9 -5 -20 -14
-11 -10 -20 -23 -20 -30 0 -12 -13 -17 -32 -14 -4 0 -19 -11 -34 -25 -20 -21
-23 -29 -13 -35 8 -4 10 -11 6 -15 -4 -4 -14 1 -21 12 -8 10 -10 20 -5 22 14
6 10 22 -6 22 -8 0 -23 -19 -34 -43 -15 -32 -20 -37 -20 -19 -1 12 4 22 10 22
7 0 10 14 7 35 -2 19 0 35 4 35 4 0 8 -6 8 -12 0 -8 15 -14 36 -15 23 -1 34 2
31 10 -2 7 -13 12 -24 12 -12 0 -25 3 -29 8 -4 4 6 7 22 7 20 0 25 3 15 9 -17
11 -6 32 13 25 10 -4 12 2 9 23 -3 19 -2 24 5 15 6 -10 9 -5 8 16 -1 17 -4 28
-7 26 -4 -2 -9 3 -13 11 -3 8 -15 15 -26 15 -11 0 -20 7 -20 16 0 10 7 14 23
12 17 -2 22 2 22 19 0 35 12 36 20 1 6 -26 9 -29 12 -13 6 23 21 35 44 35 12
0 15 -7 12 -28 -4 -21 -2 -24 6 -12 6 8 11 22 11 31 0 8 15 23 34 32 24 11 36
25 41 46 7 32 20 40 28 19 4 -10 6 -10 6 0 1 7 -12 18 -29 23 -29 11 -41 29
-19 29 6 0 8 7 5 16 -3 8 -1 24 4 34 8 16 8 18 -5 14 -8 -4 -15 -1 -15 4 0 6
9 14 20 17 22 7 26 20 10 30 -5 3 -10 16 -10 28 0 16 3 18 12 9 7 -7 16 -12
20 -12 13 0 9 28 -4 33 -8 2 -9 8 -4 13 5 5 11 4 13 -3 3 -7 11 -13 19 -13 8
0 14 6 14 13 0 6 5 4 11 -5 5 -10 15 -18 22 -18 8 0 8 3 -2 9 -8 5 -11 16 -7
29 8 24 -19 39 -28 15 -5 -12 -9 -13 -21 -3 -11 9 -18 9 -30 -3 -8 -9 -15 -20
-15 -26 0 -6 -6 -11 -14 -11 -7 0 -17 -15 -20 -32 -7 -31 -8 -32 -21 -14 -8
11 -16 29 -16 40 -1 16 -2 17 -6 5 -3 -11 -11 -15 -24 -12 -16 4 -19 0 -19
-26 0 -33 -14 -42 -24 -14 -6 13 -12 9 -32 -21 -28 -40 -27 -86 1 -86 8 0 15
-2 15 -5 0 -8 -24 -48 -37 -63 -19 -20 -16 -34 7 -27 23 7 25 -2 5 -29 -12
-16 -17 -17 -30 -6 -13 10 -15 9 -15 -7 0 -41 -46 -59 -52 -20 -3 20 -9 22
-60 23 -32 1 -56 -2 -53 -6 7 -12 74 -17 78 -6 2 6 6 5 10 -1 5 -7 -2 -17 -14
-24 -17 -8 -23 -8 -29 1 -6 9 -26 11 -69 7 l-61 -5 0 31 c0 24 -3 28 -12 19
-9 -9 -9 -18 0 -37 7 -14 12 -28 12 -30 0 -10 -49 -5 -55 5 -4 6 -11 8 -16 5
-5 -4 -9 1 -9 9 0 10 -6 13 -16 9 -11 -4 -14 0 -11 18 2 13 2 18 0 11 -3 -6
-11 -12 -19 -12 -8 0 -14 -4 -14 -10 0 -13 -33 -13 -47 1 -8 8 -17 7 -32 -3
-24 -15 -29 -33 -6 -25 8 4 17 3 19 -2 3 -4 -24 -8 -60 -9 -36 0 -72 -6 -80
-12 -15 -13 -18 -3 -8 24 7 19 31 21 37 4 3 -10 13 -9 41 5 32 15 37 21 32 42
-6 24 8 43 19 25 9 -15 41 -12 55 5 9 11 16 13 24 5 17 -17 31 -11 49 20 10
16 25 30 34 30 8 0 31 14 51 31 21 19 38 27 40 20 2 -6 13 -11 25 -11 22 0 22
1 -2 19 -17 13 -22 23 -16 39 3 12 13 22 21 22 8 0 14 5 14 11 0 5 4 8 9 4 5
-3 12 -1 16 5 4 6 -4 10 -19 10 -14 0 -28 -5 -32 -11 -3 -6 -15 -9 -25 -6 -16
4 -18 1 -13 -18 3 -12 1 -26 -5 -29 -6 -4 -11 -17 -11 -29 -1 -20 -2 -21 -14
-4 -17 22 -26 22 -26 -3 0 -11 -7 -20 -15 -20 -20 0 -19 6 7 48 13 21 18 37
11 39 -5 2 -8 15 -5 30 3 16 1 24 -5 20 -6 -4 -14 -32 -18 -62 -6 -49 -9 -55
-26 -50 -25 8 -24 -7 1 -25 25 -18 26 -32 3 -28 -12 2 -19 -4 -21 -19 -4 -27
-27 -30 -36 -6 -5 11 -1 22 10 30 16 12 16 13 -4 13 -12 0 -22 5 -22 10 0 6
-11 10 -25 10 -14 0 -25 5 -25 10 0 14 26 13 50 -3 17 -10 22 -9 30 3 11 18 2
33 -16 26 -10 -4 -14 2 -14 19 0 31 -15 32 -25 3 l-8 -23 -4 23 c-6 33 -23 27
-23 -8 0 -31 -16 -43 -66 -52 -11 -2 -22 -7 -26 -13 -5 -6 -8 -5 -8 3 0 8 9
16 20 19 23 6 27 23 5 23 -8 0 -23 8 -33 18 -22 22 -19 112 4 112 17 0 18 22
2 38 -8 8 -8 15 2 27 10 12 10 15 -4 15 -9 0 -16 8 -16 18 0 14 -2 14 -9 3 -6
-9 -6 -22 0 -34 7 -12 7 -28 0 -49 -6 -17 -11 -46 -11 -64 0 -19 -4 -34 -10
-34 -11 0 -11 1 -14 47 -2 37 -19 62 -30 44 -4 -6 0 -11 9 -11 13 0 14 -4 4
-21 -6 -12 -9 -32 -6 -45 3 -16 0 -24 -10 -24 -8 0 -11 4 -8 10 10 15 -6 78
-20 84 -9 3 -12 0 -9 -9 3 -8 0 -28 -7 -45 -11 -23 -20 -30 -41 -30 -25 0 -27
3 -26 36 1 33 -7 46 -37 58 -6 2 -5 11 3 25 14 24 1 29 -18 6 -7 -8 -9 -22 -6
-31 5 -13 1 -15 -19 -12 -17 4 -25 1 -25 -8 0 -8 -6 -11 -15 -8 -11 5 -15 -1
-15 -25 0 -17 -4 -31 -10 -31 -9 0 -15 51 -13 113 1 17 -3 26 -10 24 -7 -2
-11 -19 -10 -38 0 -19 -1 -27 -3 -18 -6 20 -49 40 -69 33 -8 -4 -15 -1 -15 5
0 6 12 11 27 11 34 0 93 40 93 63 0 20 -25 23 -34 5 -3 -7 -3 -2 0 11 4 17 2
22 -7 19 -8 -3 -14 -16 -14 -29 0 -20 -6 -25 -33 -27 -17 -2 -32 -7 -32 -13 0
-5 -9 -9 -20 -9 -11 0 -20 -7 -20 -15 0 -22 -17 -19 -23 4 -4 15 2 20 29 26
19 3 34 10 34 15 0 15 33 50 47 50 9 0 13 17 13 52 0 51 0 52 -16 30 -9 -13
-22 -21 -30 -18 -8 3 -14 0 -15 -7 0 -7 -4 -3 -9 8 -7 17 -9 16 -9 -10 l-1
-29 -17 24 c-9 14 -18 27 -19 28 -1 2 -11 1 -22 -2 -13 -4 -19 -16 -19 -36 0
-17 4 -30 9 -30 5 0 -6 -13 -24 -30 -34 -31 -48 -37 -48 -20 0 6 5 10 10 10 6
0 10 7 10 15 0 8 7 15 15 15 17 0 19 9 6 29 -12 19 4 51 24 51 8 0 15 7 15 15
0 8 7 15 15 15 8 0 15 5 15 10 0 6 -7 10 -16 10 -11 0 -15 6 -11 20 3 11 0 20
-6 20 -6 0 -18 7 -28 16 -9 8 -26 16 -38 17 -12 1 -20 6 -18 12 6 17 47 17 73
1 21 -14 24 -14 24 -2 0 8 -8 20 -17 26 -17 11 -17 11 0 6 10 -3 23 -6 28 -6
4 0 7 -20 5 -44 -3 -39 0 -45 22 -55 31 -14 40 -7 18 14 -18 18 -21 51 -7 60
10 6 26 -33 18 -42 -3 -3 3 -15 14 -26 19 -21 19 -21 33 -1 13 17 13 19 -10
22 -17 2 -24 8 -20 18 3 8 1 14 -4 14 -6 0 -10 7 -10 15 0 10 10 15 33 15 l32
0 -3 50 c-4 58 -23 80 -53 62 -10 -7 -22 -12 -26 -12 -5 0 -1 4 6 9 12 8 11
13 -10 30 -24 20 -45 26 -86 22 -15 -1 -26 8 -37 30 -9 17 -13 35 -11 39 3 5
0 19 -5 32 l-11 23 5 -25 c5 -24 4 -24 -9 -6 -17 23 -20 62 -5 71 5 3 10 -4
11 -17 1 -20 2 -19 15 10 8 18 26 37 40 42 33 13 34 13 34 -5 0 -19 14 -19 30
0 7 8 25 15 41 15 29 0 40 -15 17 -23 -7 -2 -10 -7 -7 -11 3 -3 20 -1 38 5 23
8 35 8 45 0 7 -6 16 -8 19 -4 15 14 6 23 -23 23 -20 0 -30 5 -30 15 0 9 -10
20 -22 24 -22 8 -22 9 -4 17 12 5 23 2 30 -8 6 -8 22 -20 34 -27 21 -11 23
-11 20 6 -2 10 -10 17 -16 15 -7 -1 -12 5 -12 13 0 10 11 16 33 17 37 1 42 2
81 13 l29 8 -22 19 c-18 14 -19 18 -7 18 9 0 16 5 16 11 0 5 5 7 10 4 6 -3 30
4 55 16 43 21 44 23 28 41 -16 18 -16 18 1 12 15 -6 17 -3 12 17 -6 20 -5 21
4 6 6 -9 8 -22 5 -27 -3 -6 5 -10 19 -10 16 0 26 6 26 15 0 18 31 35 66 35 32
0 65 26 57 46 -8 22 15 16 27 -7 7 -11 18 -18 25 -15 8 3 15 1 17 -4 2 -5 16
-10 33 -12 25 -2 30 1 31 20 2 31 11 37 30 21 16 -13 17 -11 10 14 -6 25 -4
28 12 23 25 -8 52 2 52 20 0 16 -16 19 -25 4 -7 -12 -25 -13 -25 -2 1 12 88
52 117 52 14 0 34 7 44 16 15 13 24 14 50 5 47 -16 68 -15 43 4 -17 13 -17 14
-2 15 11 0 15 5 12 15 -4 8 -1 15 5 15 6 0 11 -10 11 -23 0 -12 9 -28 21 -35
18 -11 24 -11 37 1 23 21 110 25 123 7 8 -11 12 -12 16 -3 2 7 3 15 1 19 -4 9
93 33 109 27 7 -3 13 -3 13 1 0 3 -18 10 -40 16 -25 7 -40 17 -40 27 0 12 3
13 14 3 11 -8 20 -9 33 -1 17 10 17 10 -2 11 -11 0 -36 5 -56 10 -30 8 -38 16
-41 40 -3 17 0 30 5 30 5 0 4 7 -3 15 -17 21 -2 37 34 34 57 -4 76 1 76 17 0
11 6 13 19 9 28 -9 69 4 76 25 4 12 13 16 30 12 20 -3 25 0 25 17 0 24 10 27
29 9 10 -11 11 -10 6 3 -4 11 0 18 14 22 16 4 21 13 21 36 0 18 5 31 13 31 8
0 7 3 -3 10 -12 7 -12 11 3 28 15 16 15 21 4 30 -8 7 -17 9 -20 5 -4 -3 -7 -1
-7 5 0 7 16 12 40 12 23 0 40 5 40 11 0 6 7 9 15 5 9 -3 15 0 15 9 0 10 11 15
36 15 38 0 44 22 8 28 -29 6 -32 12 -38 95 -4 53 -2 77 5 77 8 0 8 5 -1 15 -6
8 -9 19 -6 24 4 5 2 28 -3 50 -10 47 -3 52 58 44 22 -3 41 -1 41 4 0 5 16 10
35 11 20 2 47 7 62 13 17 6 28 6 32 0 9 -14 107 -7 126 9 14 11 18 11 25 0 5
-8 15 -10 26 -5 29 11 93 11 98 0 3 -5 5 -3 5 5 1 13 27 26 81 41 12 3 15 -5
14 -33 -1 -21 3 -38 8 -38 5 0 8 -8 6 -17 -2 -10 -12 -18 -23 -18 -15 0 -19
-6 -18 -22 2 -14 -4 -24 -17 -28 -22 -7 -55 -61 -42 -68 4 -3 38 -4 76 -4 46
0 62 4 50 9 -14 6 -12 7 6 2 62 -15 83 -17 76 -5 -4 6 -1 11 8 11 9 0 16 -7
16 -16 0 -11 5 -14 16 -10 9 4 22 2 28 -3 7 -6 25 -8 41 -6 17 2 33 4 36 4 13
2 20 36 25 109 5 94 43 173 131 274 36 40 75 89 87 108 45 69 83 145 78 158
-2 6 3 12 11 12 17 0 27 31 20 61 -5 18 -8 19 -17 8 -23 -30 -97 -46 -80 -17
4 7 -4 8 -25 3 -29 -6 -30 -5 -22 17 5 14 4 30 -3 41 -9 15 -6 22 14 40 14 13
26 35 28 52 1 16 9 33 17 38 8 4 15 16 15 25 0 13 -2 14 -9 4 -6 -10 -15 1
-34 36 -22 43 -24 54 -16 92 5 23 16 52 24 64 21 29 19 73 -4 86 -11 5 -37 12
-58 15 -21 3 -55 8 -75 11 -33 5 -100 45 -136 81 -17 17 -27 16 -43 -3 -28
-34 -61 -42 -114 -29 -80 21 -107 34 -112 54 -4 17 -49 47 -65 43 -5 -1 -8 2
-8 7 0 14 -96 31 -165 29 -90 -2 -326 28 -360 46 -36 19 -61 20 -71 4 -10 -16
20 -35 69 -42 78 -12 142 -30 160 -45 16 -13 16 -16 2 -23 -8 -5 -15 -15 -15
-23 0 -19 -31 -55 -47 -55 -6 0 -18 -6 -26 -14 -8 -8 -36 -16 -63 -18 l-49 -3
-2 -125 c-2 -155 2 -178 32 -186 13 -3 26 -12 29 -21 4 -11 1 -13 -14 -8 -20
6 -20 6 0 -30 20 -35 19 -66 0 -35 -6 9 -10 10 -10 3 0 -7 8 -16 17 -21 13 -8
17 -28 19 -107 1 -54 7 -102 13 -108 6 -6 11 -20 10 -32 0 -20 0 -20 -10 0 -7
16 -8 14 -3 -10 7 -35 7 -36 31 -39 23 -4 30 -34 9 -42 -9 -3 -16 -13 -16 -21
0 -9 -8 -23 -18 -32 -11 -9 -22 -28 -26 -43 -3 -16 -12 -28 -19 -28 -15 0 -14
-137 1 -152 5 -5 7 -19 4 -30 -3 -15 -11 -19 -29 -15 -13 2 -43 -2 -66 -10
-23 -8 -61 -17 -84 -20 -35 -3 -43 -1 -43 12 0 12 -6 15 -21 10 -18 -6 -20 -4
-15 13 4 11 2 23 -4 27 -5 3 -11 0 -11 -7 -1 -7 -5 10 -10 37 -51 311 -45 512
14 544 13 7 50 13 83 13 52 1 63 5 97 35 20 18 42 33 47 33 6 0 10 10 9 23 0
12 -3 16 -6 9 -10 -25 -33 9 -33 48 0 26 -5 40 -16 44 -9 4 -14 9 -11 12 3 4
-17 18 -44 33 -30 15 -57 38 -66 54 -25 49 -36 144 -22 198 20 78 -4 100 -126
115 -43 6 -252 43 -304 55 -25 6 -50 17 -56 26 -7 9 -29 17 -51 18 -21 2 -40
7 -42 13 -2 6 -17 -4 -34 -23 -16 -19 -36 -35 -44 -35 -8 0 -14 -5 -14 -11 0
-6 -7 -8 -16 -5 -9 4 -13 2 -8 -5 4 -8 -3 -9 -22 -5 -16 3 -56 10 -89 15 -144
24 -240 43 -257 52 -9 5 -21 9 -25 8 -4 -1 -19 0 -33 1 -18 2 -20 4 -7 7 26 7
10 23 -23 23 -16 0 -50 11 -75 24 -110 59 -279 102 -345 89z m1479 -623 c13 0
31 -49 31 -83 0 -76 -67 -100 -129 -47 -27 24 -31 33 -25 57 19 73 70 117 102
86 7 -7 17 -13 21 -13z m-795 -79 c16 -7 26 -20 31 -43 3 -18 9 -41 12 -52 4
-13 1 -16 -7 -11 -9 5 -11 4 -6 -3 11 -18 -12 -52 -34 -52 -11 0 -20 -5 -20
-11 0 -13 -52 -3 -92 17 -25 13 -27 19 -24 62 4 56 14 84 28 76 5 -3 16 4 25
16 16 22 29 22 87 1z m194 -275 c18 -9 37 -14 42 -11 5 3 21 -2 35 -11 18 -12
37 -15 67 -11 22 3 52 1 67 -5 14 -6 30 -10 34 -9 5 1 6 -3 3 -8 -4 -5 -1 -11
4 -13 6 -2 13 -20 17 -41 5 -33 3 -37 -15 -37 -11 0 -24 -5 -27 -10 -5 -8 -11
-8 -20 0 -16 13 -133 11 -160 -3 -11 -5 -25 -16 -32 -23 -7 -7 -37 -16 -67
-19 l-53 -7 -12 -66 c-6 -37 -11 -94 -11 -127 0 -68 0 -124 -2 -134 0 -3 0
-20 1 -37 1 -29 5 -32 44 -40 68 -13 207 -10 270 5 61 15 71 26 35 41 -13 5
-19 9 -15 9 4 1 -4 12 -18 25 -15 14 -24 29 -21 34 12 20 -50 34 -73 17 -10
-7 -12 -5 -9 10 2 12 11 20 23 20 13 0 21 8 23 23 5 30 16 28 29 -5 10 -25 11
-23 12 29 1 35 6 58 14 61 9 3 9 7 -1 19 -10 13 -10 17 4 22 27 10 52 7 58
-10 3 -8 2 -12 -4 -9 -13 8 -13 -11 0 -36 7 -13 7 -19 0 -19 -5 0 -10 -7 -10
-16 0 -8 5 -12 10 -9 13 8 13 -1 0 -26 -6 -11 -7 -19 -3 -18 19 3 21 -3 14
-29 -6 -19 -4 -34 5 -46 10 -14 10 -24 3 -38 -9 -17 -7 -19 28 -16 35 3 39 1
48 -30 8 -27 13 -32 31 -28 12 3 24 3 27 -2 2 -4 2 -2 1 5 -4 17 13 26 19 11
4 -10 8 -10 15 1 13 18 32 6 32 -20 0 -11 7 -22 15 -25 8 -4 15 -16 15 -28 0
-12 5 -27 11 -33 9 -9 8 -18 -5 -38 -13 -20 -15 -30 -6 -40 13 -15 4 -39 -10
-30 -5 3 -11 -4 -15 -15 -5 -16 -12 -19 -27 -14 -15 4 -18 3 -13 -6 6 -10 1
-11 -21 -6 -16 4 -32 13 -36 19 -4 7 -8 9 -8 5 0 -4 -21 6 -46 22 -41 26 -52
28 -108 24 -33 -3 -72 -8 -86 -11 -37 -10 -60 -12 -115 -14 -55 -1 -77 2 -86
14 -3 4 -30 8 -60 9 -43 1 -62 -4 -93 -25 -21 -15 -44 -27 -51 -27 -14 0 -10
-42 7 -77 9 -18 14 -20 25 -12 10 9 13 8 13 -4 0 -23 34 -29 195 -33 110 -3
151 0 157 9 6 9 10 9 17 -1 10 -16 87 -23 135 -12 41 9 61 -1 52 -25 -5 -15
-4 -16 9 -5 8 7 15 8 15 3 0 -6 -27 -22 -60 -37 -35 -16 -58 -32 -54 -38 4 -6
9 -5 15 3 14 23 23 -19 11 -47 -11 -23 -42 -34 -42 -14 0 6 7 10 15 10 8 0 15
6 15 14 0 9 -11 13 -32 12 -26 -1 -33 -7 -39 -30 -5 -16 -6 -33 -4 -37 7 -11
-69 -18 -80 -7 -6 6 -4 7 8 3 13 -6 17 -2 17 14 0 12 -4 21 -9 21 -20 0 -41
-13 -41 -26 0 -7 -12 -19 -27 -26 -21 -11 -28 -20 -26 -41 2 -32 -14 -37 -19
-5 -4 31 -26 34 -34 3 -6 -24 -7 -24 -20 -8 -9 13 -13 14 -14 4 0 -11 -3 -11
-15 -1 -9 8 -20 9 -27 4 -7 -5 -39 -9 -71 -9 -46 0 -58 -3 -63 -17 -6 -20 -20
-24 -26 -7 -2 7 -12 7 -30 -2 -22 -9 -31 -9 -43 1 -12 10 -18 10 -31 -1 -14
-11 -18 -11 -29 4 -12 17 -31 24 -21 8 3 -5 -5 -8 -18 -7 -13 0 -22 6 -19 13
3 8 -3 10 -17 6 -13 -3 -25 0 -30 7 -11 18 -73 3 -66 -16 7 -18 2 -18 -34 1
-22 11 -30 12 -34 2 -3 -8 -8 -7 -16 5 -6 9 -17 15 -24 12 -8 -3 -17 0 -21 6
-5 8 -14 6 -31 -5 -14 -9 -30 -15 -37 -14 -6 1 -19 0 -27 -4 -54 -20 -80 -25
-86 -16 -4 7 -12 5 -22 -4 -12 -11 -30 -14 -60 -10 -26 3 -48 0 -57 -7 -12
-10 -22 -10 -46 0 -26 11 -32 11 -40 -1 -5 -8 -9 -9 -9 -3 0 7 -38 10 -110 9
l-110 -1 -35 -34 c-19 -18 -37 -31 -40 -28 -3 3 1 11 10 18 20 16 19 30 -2 47
-14 11 -15 16 -5 20 10 4 10 8 1 19 -7 8 -12 43 -13 78 0 35 -3 63 -6 61 -3
-2 -4 11 -2 29 2 19 19 49 41 73 l37 42 109 4 c99 4 131 7 215 19 14 2 37 1
52 -3 19 -5 28 -3 32 7 3 8 10 14 17 14 6 0 9 -6 6 -14 -7 -18 28 -51 74 -70
20 -8 41 -22 49 -30 16 -20 40 -21 40 -1 0 18 17 20 23 3 4 -10 7 -10 18 0 7
6 25 12 40 12 15 0 29 7 33 16 4 12 14 14 36 9 19 -4 30 -3 30 4 0 6 9 11 20
11 13 0 18 -5 14 -15 -7 -16 -1 -18 33 -9 13 4 20 11 16 20 -3 8 1 14 11 14 9
0 16 -8 17 -17 0 -12 5 -8 14 12 7 16 11 35 8 41 -7 20 -34 25 -51 12 -13 -11
-15 -10 -9 12 4 14 7 31 7 39 0 7 6 11 13 8 47 -20 47 -20 47 6 0 22 -30 62
-30 41 0 -5 -5 -2 -9 6 -10 17 7 110 21 110 4 0 8 9 8 20 0 16 -7 20 -30 20
-19 0 -30 5 -30 14 0 11 -11 11 -64 -1 -62 -14 -65 -14 -100 9 -20 13 -36 29
-36 36 0 6 -7 12 -15 12 -25 0 -17 20 13 31 15 5 33 17 39 26 16 20 89 30 167
23 57 -5 60 -6 72 -40 9 -25 13 -29 13 -14 1 21 31 44 31 24 0 -5 7 -7 15 -4
8 4 21 1 29 -5 19 -16 54 -1 100 44 23 22 35 42 32 51 -3 9 -6 25 -6 35 0 12
-4 17 -11 14 -6 -4 -9 -1 -7 6 1 8 -6 26 -16 41 -24 37 -26 277 -2 323 9 17
16 35 16 42 0 19 21 23 120 19 65 -2 106 -8 128 -20z"/>
<path d="M4937 4523 c-3 -2 -11 -5 -19 -6 -16 -3 -18 -22 -1 -21 9 1 10 -3 2
-18 -9 -17 -8 -18 8 -10 15 8 18 6 19 -14 1 -13 -2 -21 -7 -18 -5 3 -9 -1 -10
-8 0 -7 -2 -21 -4 -30 -2 -10 1 -18 6 -18 5 0 9 8 10 18 0 12 3 10 11 -8 14
-32 17 -70 5 -70 -5 0 -6 -10 -2 -22 4 -13 6 -33 6 -46 -1 -17 8 -27 34 -38
71 -29 75 -25 75 79 0 50 3 103 7 116 5 21 3 23 -19 19 -14 -3 -34 1 -44 9
-16 12 -13 13 24 13 l42 0 0 43 c-1 39 -2 41 -15 23 -12 -16 -19 -18 -37 -8
-26 13 -84 23 -91 15z"/>
<path d="M4590 4440 c-4 -3 -10 -66 -13 -140 -4 -74 -8 -144 -10 -155 -2 -11
-2 -14 0 -7 7 18 23 15 23 -5 1 -16 3 -15 18 4 9 11 40 49 67 84 43 53 50 69
50 106 0 28 4 43 13 43 6 0 12 6 12 14 0 8 -6 13 -12 12 -7 0 -13 4 -13 9 0 6
3 9 7 8 3 -1 9 4 11 12 5 11 -10 14 -70 17 -41 2 -78 1 -83 -2z"/>
<path d="M5042 4172 c-21 -3 -62 -34 -62 -47 0 -3 6 -5 13 -5 7 0 22 -6 32
-14 16 -11 17 -16 7 -29 -11 -13 -10 -17 3 -25 14 -7 15 -15 7 -44 -8 -28 -6
-37 7 -45 11 -8 13 -14 6 -22 -6 -6 -9 -28 -7 -50 3 -35 7 -40 34 -43 l30 -5
-7 83 c-4 46 -15 120 -24 166 -15 77 -18 83 -39 80z"/>
<path d="M4741 2371 c-9 -6 -11 -18 -6 -41 8 -35 10 -34 -42 -13 -9 3 -13 -4
-13 -22 0 -23 2 -26 15 -15 13 11 15 8 15 -19 0 -29 2 -30 20 -19 11 7 20 19
20 26 0 9 7 8 25 -4 22 -15 25 -15 25 -1 0 9 5 19 12 23 8 5 9 2 5 -9 -4 -11
-1 -17 8 -17 8 0 15 -4 15 -10 0 -5 6 -9 13 -7 7 1 13 -9 13 -23 1 -14 5 -32
8 -41 4 -9 0 -21 -9 -29 -8 -7 -15 -16 -15 -21 0 -12 30 -11 31 1 1 6 2 16 3
23 1 6 8 11 15 9 28 -6 2 62 -34 91 -19 16 -35 38 -35 49 0 11 -6 26 -14 34
-13 12 -15 12 -18 -4 -3 -13 -8 -9 -21 16 -20 36 -17 35 -36 23z"/>
<path d="M5980 1347 c0 -18 -24 -67 -32 -67 -5 0 -8 -5 -8 -11 0 -6 -7 -17
-15 -26 -20 -19 -14 -38 10 -38 18 0 37 -32 28 -47 -9 -16 8 -29 22 -18 21 18
35 3 35 -36 0 -25 4 -34 13 -30 6 3 20 9 30 12 12 5 16 14 13 33 -2 14 -5 38
-5 54 -1 15 -5 27 -10 27 -5 0 -7 -9 -4 -20 3 -11 1 -20 -5 -20 -12 0 -22 24
-22 52 0 17 3 18 15 8 12 -10 15 -9 15 7 0 11 -3 23 -7 26 -10 11 -33 -13 -33
-34 0 -23 -16 -25 -24 -4 -3 8 -12 15 -21 15 -8 0 -15 7 -15 15 0 24 4 30 17
27 7 -2 14 3 14 10 7 56 6 78 -2 78 -5 0 -9 -6 -9 -13z"/>
</g>
</svg>
